<svg xmlns="http://www.w3.org/2000/svg" version="1.1" xmlns:xlink="http://www.w3.org/1999/xlink" xmlns:svgjs="http://svgjs.dev/svgjs" width="2000" height="661" viewBox="0 0 2000 661"><g transform="matrix(1,0,0,1,-1.2033507252535856,0.4418376827884458)"><svg viewBox="0 0 396 131" data-background-color="#ffffff" preserveAspectRatio="xMidYMid meet" height="661" width="2000" xmlns="http://www.w3.org/2000/svg" xmlns:xlink="http://www.w3.org/1999/xlink"><g id="tight-bounds" transform="matrix(1,0,0,1,0.23826344360020357,-0.0875654106585273)"><svg viewBox="0 0 395.52 131.1703451199134" height="131.1703451199134" width="395.52"><g><svg viewBox="0 0 454.3375183422467 150.67660063176953" height="131.1703451199134" width="395.52"><g transform="matrix(1,0,0,1,0,20.8243348195861)"><svg viewBox="0 0 395.52 109.02793099259733" height="109.02793099259733" width="395.52"><g id="textblocktransform"><svg viewBox="0 0 395.52 109.02793099259733" height="109.02793099259733" width="395.52" id="textblock"><g><svg viewBox="0 0 395.52 68.66429435135603" height="68.66429435135603" width="395.52"><g transform="matrix(1,0,0,1,0,0)"><svg width="395.52" viewBox="1.35 -35.8 289.40999999999997 50.25" height="68.66429435135603" data-palette-color="url(#658ce9ae-ea1b-47a6-aabf-69df26522c34)"></svg></g></svg></g><g transform="matrix(1,0,0,1,163.31020799999996,84.87428630464676)"><svg viewBox="0 0 232.20979200000002 24.15364468795057" height="24.15364468795057" width="232.20979200000002"><g transform="matrix(1,0,0,1,0,0)"><svg width="232.20979200000002" viewBox="1.65 -36.85 436.91 45.45" height="24.15364468795057" data-palette-color="url(#195384bd-9dd1-4dc7-bdc3-03ae54c24d1c)"></svg></g></svg></g></svg></g></svg></g><g transform="matrix(1,0,0,1,411.7299919532907,0)"><svg viewBox="0 0 42.607526388955996 150.67660063176953" height="150.67660063176953" width="42.607526388955996"><g><svg xmlns="http://www.w3.org/2000/svg" xml:space="preserve" viewBox="37.27499540614281 5 25.450004593857194 90.0010045938572" x="0" y="0" height="150.67660063176953" width="42.607526388955996" class="icon-icon-0" data-fill-palette-color="accent" id="icon-0"><path d="M62.614 92.143a0.11 0.11 0 0 0-0.111 0.111v1.715H37.497v-1.715c0-0.061-0.049-0.111-0.111-0.111s-0.111 0.049-0.111 0.111v1.825a0.11 0.11 0 0 0 0.111 0.111h0.701v0.184h-0.092c-0.009 0-0.015 0.008-0.023 0.01s-0.018-0.002-0.026 0.002l-0.406 0.203a0.11 0.11 0 0 0-0.05 0.148c0.016 0.032 0.049 0.044 0.081 0.05-0.051 0.01-0.093 0.049-0.093 0.103a0.11 0.11 0 0 0 0.111 0.111h1.622a0.11 0.11 0 0 0 0.111-0.111c0-0.054-0.041-0.094-0.093-0.103 0.032-0.006 0.065-0.018 0.081-0.05a0.11 0.11 0 0 0-0.05-0.148l-0.405-0.203c-0.008-0.005-0.017 0-0.026-0.002s-0.014-0.01-0.024-0.01h-0.092v-0.184h22.555v0.184h-0.092c-0.009 0-0.015 0.008-0.023 0.01s-0.018-0.002-0.026 0.002l-0.406 0.203a0.11 0.11 0 0 0-0.05 0.148c0.016 0.032 0.049 0.044 0.081 0.05-0.051 0.01-0.093 0.049-0.093 0.103a0.11 0.11 0 0 0 0.111 0.111h1.622a0.11 0.11 0 0 0 0.111-0.111c0-0.054-0.041-0.094-0.093-0.103 0.032-0.006 0.065-0.018 0.081-0.05a0.11 0.11 0 0 0-0.05-0.148l-0.405-0.203c-0.008-0.005-0.017 0-0.026-0.002s-0.014-0.01-0.024-0.01h-0.092v-0.184h0.719a0.11 0.11 0 0 0 0.111-0.111v-1.825a0.11 0.11 0 0 0-0.11-0.111M38.78 94.595l0.368 0.184h-1.497l0.369-0.184z m-0.288-0.222h-0.184v-0.184h0.184z m23.47 0.222l0.368 0.184h-1.497l0.369-0.184z m-0.288-0.222h-0.184v-0.184h0.184z" fill="#001f3f" data-fill-palette-color="accent"></path><path d="M37.276 92.253H49.44V5H37.276z m9.919-49.578h1.122v2.244h-1.122zM50.561 5v87.253h12.164V5z m2.244 39.919h-1.122v-2.244h1.122z" fill="#001f3f" data-fill-palette-color="accent"></path></svg></g></svg></g></svg></g><defs></defs><mask id="696dc736-acf2-43db-9d79-ab259e11de65"><g id="SvgjsG1061"><svg viewBox="0 0 395.52 131.1703451199134" height="131.1703451199134" width="395.52"><g><svg viewBox="0 0 454.3375183422467 150.67660063176953" height="131.1703451199134" width="395.52"><g transform="matrix(1,0,0,1,0,20.8243348195861)"><svg viewBox="0 0 395.52 109.02793099259733" height="109.02793099259733" width="395.52"><g id="SvgjsG1060"><svg viewBox="0 0 395.52 109.02793099259733" height="109.02793099259733" width="395.52" id="SvgjsSvg1059"><g><svg viewBox="0 0 395.52 68.66429435135603" height="68.66429435135603" width="395.52"><g transform="matrix(1,0,0,1,0,0)"><svg width="395.52" viewBox="1.35 -35.8 289.40999999999997 50.25" height="68.66429435135603" data-palette-color="url(#658ce9ae-ea1b-47a6-aabf-69df26522c34)"><path d="M23.1-11.45L23.1-11.45Q24.05-11.45 24.05-9.05 24.05-6.65 23.15-4.75 22.25-2.85 20.98-1.8 19.7-0.75 18.1-0.1L18.1-0.1Q12.75 2.25 8.1-0.2L8.1-0.2Q5.75-1.45 4.5-3.18 3.25-4.9 2.5-7.3L2.5-7.3Q1.35-10.9 1.35-14.85 1.35-18.8 2.1-22.25 2.85-25.7 4.4-28.83 5.95-31.95 8.8-33.85 11.65-35.75 15.4-35.75L15.4-35.75Q17-35.75 18.73-35.23 20.45-34.7 21.55-33.93 22.65-33.15 23.5-31.55 24.35-29.95 24.35-27.8L24.35-27.8Q24.35-25.5 23.25-23.65L23.25-23.65Q22.75-22.8 21.65-22.13 20.55-21.45 19.05-21.45L19.05-21.45Q16.75-21.45 15.8-23.5L15.8-23.5Q15.4-24.3 15.4-25.25 15.4-26.2 16.05-26.35L16.05-26.35Q16.75-26.55 17.35-27.45 17.95-28.35 17.95-29.55L17.95-29.55Q17.95-30.5 17.45-31.2L17.45-31.2Q16.5-32.45 14.7-32.45 12.9-32.45 11.43-30.8 9.95-29.15 9.2-26.65L9.2-26.65Q7.7-21.65 7.7-17.45L7.7-17.45Q7.7-13.25 8.85-10.7L8.85-10.7Q10.25-7.55 12.4-6.5L12.4-6.5Q13.75-5.85 15.5-5.85L15.5-5.85Q18.45-5.85 20.8-8.5L20.8-8.5Q21.8-9.55 22.45-11L22.45-11Q22.7-11.45 23.1-11.45ZM33.55-28.6L33.55-28.6 33.25-10.25Q33.25-1.65 33.8 0.05L33.8 0.05Q33.95 0.35 33.95 0.65L33.95 0.65Q33.95 1.25 32.5 1.25 31.05 1.25 29.27 0.53 27.5-0.2 27.5-1.35L27.5-1.35Q28.5-8.35 28.5-20.05L28.5-20.05 28.3-27.7Q28.2-29.1 27.72-30.1 27.25-31.1 26.8-31.4L26.8-31.4 26.4-31.65Q26.05-31.85 26.05-32.1L26.05-32.1Q26.05-32.8 28.22-33.83 30.4-34.85 32.45-34.85L32.45-34.85Q33.25-34.85 33.35-34.3L33.35-34.3Q33.55-33 33.55-28.6ZM41.84-18.85L41.84-18.85Q40.55-18.8 39.97-18.78 39.4-18.75 39.4-19.05 39.4-19.35 39.7-19.65L39.7-19.65Q42.9-22.6 50.5-22.6L50.5-22.6Q53.09-22.6 54.59-22.15L54.59-22.15 55.09-22Q55.7-21.75 55.7-21.45L55.7-21.45Q55.7-21.2 55.34-21.05L55.34-21.05Q54-20.65 52.75-19.78 51.5-18.9 51.5-18.55L51.5-18.55 51.8-18.2Q53.39-17.3 54.27-15.35 55.15-13.4 55.25-11.9L55.25-11.9 55.34-10.35Q55.34-5.4 52.59-2.2 49.84 1 45.09 1L45.09 1Q42.7 1 40.95 0.15 39.2-0.7 38.37-1.78 37.55-2.85 37.05-4.2L37.05-4.2Q36.45-6.05 36.45-8.03 36.45-10 37.12-12 37.8-14 38.67-14.95 39.55-15.9 40.65-16.5L40.65-16.5Q42.05-17.25 42.9-17.25 43.75-17.25 43.75-16.9L43.75-16.9 43.45-16.4Q42.34-15.1 41.87-13 41.4-10.9 41.4-9.28 41.4-7.65 41.8-6.05 42.2-4.45 42.7-3.68 43.2-2.9 43.84-2.5L43.84-2.5Q44.8-1.9 45.84-1.9 46.9-1.9 47.9-2.73 48.9-3.55 49.34-4.9L49.34-4.9Q50.25-7.4 50.25-10.05L50.25-10.05Q50.25-14.25 48.12-16.55 46-18.85 41.84-18.85ZM72.84-6.85L72.84-6.85Q72.84-4.7 72.02-3.1 71.19-1.5 70.14-0.75 69.09 0 67.64 0.45L67.64 0.45Q65.74 1.05 64.19 1.05L64.19 1.05Q60.94 1.05 58.79-0.23 56.64-1.5 56.64-4.3L56.64-4.3Q56.64-5.95 57.54-7L57.54-7Q58.94-8.55 60.89-8.55L60.89-8.55Q61.49-8.55 61.49-8L61.49-8Q61.49-7.95 61.27-7.23 61.04-6.5 61.04-5.4 61.04-4.3 61.92-3.45 62.79-2.6 64.04-2.6 65.29-2.6 66.04-3.03 66.79-3.45 67.09-4.1L67.09-4.1Q67.54-5 67.54-5.8L67.54-5.8Q67.54-7.25 66.09-8.3 64.64-9.35 62.89-9.95 61.14-10.55 59.69-11.95 58.24-13.35 58.24-15.45L58.24-15.45Q58.24-19.05 60.52-20.85 62.79-22.65 66.69-22.65L66.69-22.65Q68.39-22.65 70.27-22.18 72.14-21.7 72.14-20.58 72.14-19.45 71.77-18.5 71.39-17.55 70.84-17.55L70.84-17.55Q70.54-17.55 70.44-17.78 70.34-18 70.09-18.3 69.84-18.6 68.89-19.07 67.94-19.55 67.27-19.55 66.59-19.55 66.37-19.53 66.14-19.5 65.59-19.38 65.04-19.25 64.59-19L64.59-19Q63.44-18.35 63.44-17.1L63.44-17.1Q63.44-16.3 63.79-15.93 64.14-15.55 64.34-15.35 64.54-15.15 65.04-14.88 65.54-14.6 65.74-14.5 65.94-14.4 66.64-14.08 67.34-13.75 67.54-13.65L67.54-13.65Q72.84-11.15 72.84-6.85ZM79.59-12.7L79.59-12.7 79.64-11.45Q79.64-11.15 80.04-11.15L80.04-11.15Q81.64-11.3 82.84-11.98 84.04-12.65 84.64-13.5L84.64-13.5Q85.84-15.35 85.94-16.7L85.94-16.7 85.99-17.3Q85.99-20 83.84-20L83.84-20Q82.24-20 81.24-18.6L81.24-18.6Q79.59-16.4 79.59-12.7ZM90.49-6.05L90.49-6.05Q90.49-4.15 89.72-2.73 88.94-1.3 87.97-0.63 86.99 0.05 85.69 0.45L85.69 0.45Q84.04 0.95 82.54 0.95L82.54 0.95Q78.34 0.95 76.34-2.2 74.34-5.35 74.34-10.23 74.34-15.1 76.81-18.9 79.29-22.7 84.24-22.7L84.24-22.7Q88.74-22.7 90.34-19.55L90.34-19.55Q90.99-18.35 90.99-17.28 90.99-16.2 90.89-15.58 90.79-14.95 90.19-13.7 89.59-12.45 88.59-11.45 87.59-10.45 85.44-9.55 83.29-8.65 80.39-8.35L80.39-8.35Q79.99-8.35 79.99-8L79.99-8Q79.99-7.55 80.31-6.68 80.64-5.8 81.04-5.2L81.04-5.2Q82.14-3.8 84.29-3.8L84.29-3.8Q86.44-3.8 87.94-5.2L87.94-5.2Q88.74-5.95 89.24-7.05L89.24-7.05Q89.44-7.45 89.77-7.45 90.09-7.45 90.29-6.9 90.49-6.35 90.49-6.05ZM92.49-19.5L92.49-19.5 92.64-21.5Q92.69-21.95 93.34-21.95L93.34-21.95 95.09-21.95 94.89-25.95 94.89-26.15Q94.89-27.3 96.64-28.35 98.39-29.4 99.84-29.4L99.84-29.4Q100.29-29.4 100.29-29L100.29-29 100.29-28.95Q100.09-27.6 99.89-22L99.89-22Q102.09-22 102.69-22.1 103.29-22.2 103.34-22.2L103.34-22.2Q103.69-22.2 103.69-21.6 103.69-21 103.14-20.08 102.59-19.15 101.94-19.1L101.94-19.1 99.84-19.1Q99.79-17.4 99.79-13.38 99.79-9.35 99.86-6.75 99.94-4.15 100.04-2.83 100.14-1.5 100.26-0.7 100.39 0.1 100.46 0.45 100.54 0.8 100.54 0.9L100.54 0.9Q100.54 1.4 99.89 1.45L99.89 1.45Q97.94 1.45 96.01 0.9 94.09 0.35 94.09-1L94.09-1Q95.14-9.4 95.14-19.05L95.14-19.05Q93.79-19.05 93.09-18.95L93.09-18.95 93.04-18.95Q92.59-18.95 92.49-19.5ZM123.53-17.25L123.53-17.25 122.38-16.95Q121.48-16.95 121.48-18.63 121.48-20.3 122.71-21.33 123.93-22.35 125.83-22.35L125.83-22.35Q126.88-22.35 128.08-21.73 129.28-21.1 130.08-20.18 130.88-19.25 131.51-17.28 132.13-15.3 132.13-12.65L132.13-12.65Q132.13-6.55 128.86-2.75 125.58 1.05 119.38 1.05L119.38 1.05Q117.58 1.05 115.83 0.7L115.83 0.7 115.33 0.6Q114.68 0.4 114.58-0.1L114.58-0.1Q114.43-1.15 114.43-5.05L114.43-5.05 114.73-21.25Q114.73-25 114.53-27L114.53-27 114.43-27.7Q114.33-29.1 113.86-30.1 113.38-31.1 112.93-31.4L112.93-31.4 112.53-31.65Q112.18-31.85 112.18-32.1L112.18-32.1Q112.18-32.85 114.68-33.88 117.18-34.9 118.33-34.9 119.48-34.9 119.53-34.3L119.53-34.3Q119.88-31.25 119.88-25.6L119.88-25.6 119.63-13.6Q119.63-5.75 120.08-2.75L120.08-2.75Q120.13-2.05 121.66-2.05 123.18-2.05 124.28-2.9 125.38-3.75 125.93-5.15L125.93-5.15Q126.93-7.7 126.93-10.8L126.93-10.8Q126.93-12.25 126.53-13.95L126.53-13.95Q125.83-17.25 123.53-17.25ZM143.23 13.85L143.23 13.85Q143.23 14.45 142.63 14.45L142.63 14.45 142.58 14.45Q140.93 14.45 138.86 13.3 136.78 12.15 136.78 10.65 136.78 9.15 138.68 5.43 140.58 1.7 140.58 0.45L140.58 0.45Q140.58-0.9 139.28-4.4L139.28-4.4Q137.63-8.95 136.66-11.8 135.68-14.65 134.56-16.82 133.43-19 132.93-19.4L132.93-19.4 132.43-19.75Q131.88-20.05 131.88-20.4L131.88-20.4Q131.88-21.1 134.06-21.83 136.23-22.55 137.88-22.55L137.88-22.55Q138.63-22.55 139.13-21.35L139.13-21.35Q140.03-19 141.08-14.85L141.08-14.85Q143.63-6.35 144.28-6.35L144.28-6.35Q144.73-6.35 146.11-9.85 147.48-13.35 147.48-15.5L147.48-15.5Q147.48-19.25 145.28-19.9L145.28-19.9Q144.78-20 144.78-20.4L144.78-20.4Q144.78-21.3 147.13-22.13 149.48-22.95 151.38-22.95L151.38-22.95Q153.03-22.95 153.03-20.8L153.03-20.8Q153.03-19.15 152.33-16.95 151.63-14.75 151.03-13.48 150.43-12.2 148.06-7.58 145.68-2.95 144.13 0.55L144.13 0.55Q142.43 4.75 142.43 9.1L142.43 9.1Q142.43 11.4 142.83 12.55 143.23 13.7 143.23 13.85ZM171.23-22.15L171.23-22.15 171.23-21.45 180.08-21.45 180.08-21.55Q180.13-22.75 180.13-24.58 180.13-26.4 180.08-27.78 180.03-29.15 179.98-30.1 179.93-31.05 179.85-31.75 179.78-32.45 179.73-32.83 179.68-33.2 179.68-33.5 179.68-33.8 180.23-34.2L180.23-34.2Q182.63-35.8 185.58-35.8L185.58-35.8Q187.43-35.8 187.43-35.15L187.43-35.15Q187.43-35.1 187.33-34.6L187.33-34.6Q186.38-29.85 186.13-21.45L186.13-21.45Q185.98-13.05 185.98-12.45L185.98-12.45Q185.98-4.7 186.88-1.7L186.88-1.7Q187.03-1.3 187.03-1.03 187.03-0.75 186.63-0.4L186.63-0.4Q184.78 0.8 181.83 0.8L181.83 0.8Q179.93 0.8 179.68-0.5L179.68-0.5Q179.53-1.2 179.53-2.68 179.53-4.15 179.7-7.2 179.88-10.25 179.98-17.85L179.98-17.85 171.23-17.85Q171.23-6.45 171.93-1.85L171.93-1.85Q171.93-0.65 169.63 0.13 167.33 0.9 165.83 0.9 164.33 0.9 164.33 0.45L164.33 0.45Q164.33 0.15 164.48-0.3L164.48-0.3Q165.43-2.4 165.43-17.2L165.43-17.2 165.43-17.85 162.48-17.85Q162.08-17.85 162.08-18.15L162.08-18.15Q162.08-18.25 162.28-18.93 162.48-19.6 163.2-20.5 163.93-21.4 164.83-21.4L164.83-21.4 165.38-21.4Q165.38-31.25 164.23-32.75L164.23-32.75 164.03-33.05Q163.73-33.3 163.73-33.68 163.73-34.05 164.28-34.3L164.28-34.3Q165.03-34.75 166.95-35.2 168.88-35.65 170.43-35.65 171.98-35.65 171.98-34.95L171.98-34.95 171.98-34.8Q171.38-29.6 171.23-22.15ZM195.42-26.75L195.42-26.75 194.22-26.8Q192.87-26.8 192.47-26.15L192.47-26.15Q192.37-26 192.22-26L192.22-26Q191.57-26 191.57-28.23 191.57-30.45 192.25-31.05 192.92-31.65 194.6-31.65 196.27-31.65 196.87-31.08 197.47-30.5 197.47-29.15 197.47-27.8 197.02-27.28 196.57-26.75 195.42-26.75ZM191.42-1.5L191.42-1.5 191.97-13.15Q191.97-17.3 191.02-18.8L191.02-18.8Q190.72-19.3 190.32-19.55L190.32-19.55Q190.02-19.65 190.02-19.95L190.02-19.95Q190.02-20.85 192.57-21.7 195.12-22.55 196.3-22.55 197.47-22.55 197.52-21.95L197.52-21.95Q197.52-20.95 197.25-16.28 196.97-11.6 196.97-6.45 196.97-1.3 197.57-0.05L197.57-0.05Q197.72 0.2 197.72 0.45L197.72 0.45Q197.72 1.1 195.82 1.1 193.92 1.1 191.92 0.1L191.92 0.1Q191.42-0.15 191.42-1.5ZM210.77-22.45L210.77-22.45Q211.67-22.45 212.4-22.23 213.12-22 213.17-22L213.17-22 213.47-22.25 213.27-27.7Q213.17-29.1 212.67-30.1 212.17-31.1 211.77-31.4L211.77-31.4 211.32-31.65Q211.02-31.85 211.02-32.1L211.02-32.1Q211.02-32.85 213.35-33.85 215.67-34.85 216.97-34.85 218.27-34.85 218.37-34.3L218.37-34.3Q218.62-32.6 218.62-27.83 218.62-23.05 218.4-18.45 218.17-13.85 218.17-8.03 218.17-2.2 218.92-0.7L218.92-0.7Q219.12-0.35 219.12-0.05L219.12-0.05Q219.12 0.7 216.97 0.7L216.97 0.7Q212.87 0.7 212.87-1.25L212.87-1.25Q212.77-2.05 212.77-3.73 212.77-5.4 213.1-9.98 213.42-14.55 213.42-17.03 213.42-19.5 210.95-19.5 208.47-19.5 207.17-16.6 205.87-13.7 205.87-10.8L205.87-10.8Q205.87-4.65 208.97-4.65L208.97-4.65Q209.42-4.65 209.85-4.83 210.27-5 210.37-5L210.37-5Q210.77-5 211-4.5 211.22-4 211.22-3.5L211.22-3.5Q211.22-1.8 209.87-0.63 208.52 0.55 206.57 0.55L206.57 0.55Q203.57 0.55 202.05-2.08 200.52-4.7 200.52-8.6L200.52-8.6Q200.52-13.55 202.87-17.8L202.87-17.8Q204.07-19.9 206.12-21.18 208.17-22.45 210.77-22.45ZM238.07-15L238.07-15 237.97-8.6Q237.97-1.95 239.42-0.6L239.42-0.6Q239.62-0.4 239.62-0.15L239.62-0.15Q239.62 0.6 236.39 0.6 233.17 0.6 232.97-1.3L232.97-1.3Q232.92-1.75 232.92-3.15L232.92-3.15 233.12-11.15Q233.12-11.5 232.72-11.5L232.72-11.5Q230.32-11.5 228.22-10.15 226.12-8.8 226.12-6.7L226.12-6.7Q226.12-5.6 226.72-4.85 227.32-4.1 228.19-4.1 229.07-4.1 229.64-4.45 230.22-4.8 230.32-4.85L230.32-4.85Q231.17-4.75 231.17-3.08 231.17-1.4 229.62-0.38 228.07 0.65 226.37 0.65 224.67 0.65 223.44 0.05 222.22-0.55 221.67-1.3 221.12-2.05 220.77-3L220.77-3Q220.42-4.15 220.42-5L220.42-5Q220.42-8.5 222.62-10.6 224.82-12.7 228.27-13.6L228.27-13.6Q232.82-14.5 233.02-15.25L233.02-15.25Q233.17-15.8 233.17-17.1L233.17-17.1Q233.17-19.75 230.47-19.75L230.47-19.75Q229.32-19.75 228.42-19.03 227.52-18.3 227.52-17.2L227.52-17.2 227.82-16Q227.72-15.15 226.02-15L226.02-15 225.47-14.95Q223.97-14.95 223.09-15.7 222.22-16.45 222.22-17.7L222.22-17.7Q222.22-18.5 222.74-19.48 223.27-20.45 224.07-21.05 224.87-21.65 226.54-22.13 228.22-22.6 229.77-22.6 231.32-22.6 232.17-22.5 233.02-22.4 234.49-22.03 235.97-21.65 236.94-20.6 237.92-19.55 237.99-18.38 238.07-17.2 238.07-15ZM249.97 13.85L249.97 13.85Q249.97 14.45 249.37 14.45L249.37 14.45 249.32 14.45Q247.67 14.45 245.59 13.3 243.52 12.15 243.52 10.65 243.52 9.15 245.42 5.43 247.32 1.7 247.32 0.45L247.32 0.45Q247.32-0.9 246.02-4.4L246.02-4.4Q244.37-8.95 243.39-11.8 242.42-14.65 241.29-16.82 240.17-19 239.67-19.4L239.67-19.4 239.17-19.75Q238.62-20.05 238.62-20.4L238.62-20.4Q238.62-21.1 240.79-21.83 242.97-22.55 244.62-22.55L244.62-22.55Q245.37-22.55 245.87-21.35L245.87-21.35Q246.77-19 247.82-14.85L247.82-14.85Q250.37-6.35 251.02-6.35L251.02-6.35Q251.47-6.35 252.84-9.85 254.22-13.35 254.22-15.5L254.22-15.5Q254.22-19.25 252.02-19.9L252.02-19.9Q251.52-20 251.52-20.4L251.52-20.4Q251.52-21.3 253.87-22.13 256.22-22.95 258.12-22.95L258.12-22.95Q259.77-22.95 259.77-20.8L259.77-20.8Q259.77-19.15 259.07-16.95 258.37-14.75 257.77-13.48 257.17-12.2 254.79-7.58 252.42-2.95 250.87 0.55L250.87 0.55Q249.17 4.75 249.17 9.1L249.17 9.1Q249.17 11.4 249.57 12.55 249.97 13.7 249.97 13.85ZM277.26-15L277.26-15 277.16-8.6Q277.16-1.95 278.61-0.6L278.61-0.6Q278.81-0.4 278.81-0.15L278.81-0.15Q278.81 0.6 275.59 0.6 272.36 0.6 272.16-1.3L272.16-1.3Q272.11-1.75 272.11-3.15L272.11-3.15 272.31-11.15Q272.31-11.5 271.91-11.5L271.91-11.5Q269.51-11.5 267.41-10.15 265.31-8.8 265.31-6.7L265.31-6.7Q265.31-5.6 265.91-4.85 266.51-4.1 267.39-4.1 268.26-4.1 268.84-4.45 269.41-4.8 269.51-4.85L269.51-4.85Q270.36-4.75 270.36-3.08 270.36-1.4 268.81-0.38 267.26 0.65 265.56 0.65 263.86 0.65 262.64 0.05 261.41-0.55 260.86-1.3 260.31-2.05 259.96-3L259.96-3Q259.61-4.15 259.61-5L259.61-5Q259.61-8.5 261.81-10.6 264.01-12.7 267.46-13.6L267.46-13.6Q272.01-14.5 272.21-15.25L272.21-15.25Q272.36-15.8 272.36-17.1L272.36-17.1Q272.36-19.75 269.66-19.75L269.66-19.75Q268.51-19.75 267.61-19.03 266.71-18.3 266.71-17.2L266.71-17.2 267.01-16Q266.91-15.15 265.21-15L265.21-15 264.66-14.95Q263.16-14.95 262.29-15.7 261.41-16.45 261.41-17.7L261.41-17.7Q261.41-18.5 261.94-19.48 262.46-20.45 263.26-21.05 264.06-21.65 265.74-22.13 267.41-22.6 268.96-22.6 270.51-22.6 271.36-22.5 272.21-22.4 273.69-22.03 275.16-21.65 276.14-20.6 277.11-19.55 277.19-18.38 277.26-17.2 277.26-15ZM279.56-19.5L279.56-19.5 279.71-21.5Q279.76-21.95 280.41-21.95L280.41-21.95 282.16-21.95 281.96-25.95 281.96-26.15Q281.96-27.3 283.71-28.35 285.46-29.4 286.91-29.4L286.91-29.4Q287.36-29.4 287.36-29L287.36-29 287.36-28.95Q287.16-27.6 286.96-22L286.96-22Q289.16-22 289.76-22.1 290.36-22.2 290.41-22.2L290.41-22.2Q290.76-22.2 290.76-21.6 290.76-21 290.21-20.08 289.66-19.15 289.01-19.1L289.01-19.1 286.91-19.1Q286.86-17.4 286.86-13.38 286.86-9.35 286.94-6.75 287.01-4.15 287.11-2.83 287.21-1.5 287.34-0.7 287.46 0.1 287.54 0.45 287.61 0.8 287.61 0.9L287.61 0.9Q287.61 1.4 286.96 1.45L286.96 1.45Q285.01 1.45 283.09 0.9 281.16 0.35 281.16-1L281.16-1Q282.21-9.4 282.21-19.05L282.21-19.05Q280.86-19.05 280.16-18.95L280.16-18.95 280.11-18.95Q279.66-18.95 279.56-19.5Z" opacity="1" transform="matrix(1,0,0,1,0,0)" fill="white" class="wordmark-text-0" id="SvgjsPath1058"></path></svg></g></svg></g><g transform="matrix(1,0,0,1,163.31020799999996,84.87428630464676)"><svg viewBox="0 0 232.20979200000002 24.15364468795057" height="24.15364468795057" width="232.20979200000002"><g transform="matrix(1,0,0,1,0,0)"><svg width="232.20979200000002" viewBox="1.65 -36.85 436.91 45.45" height="24.15364468795057" data-palette-color="url(#195384bd-9dd1-4dc7-bdc3-03ae54c24d1c)"><path d="M10.15 0L5.25 0 5.25-35.85 15.45-35.85Q19.7-35.85 22.6-34.73 25.5-33.6 27.03-31.4 28.55-29.2 28.55-25.9L28.55-25.9Q28.55-23.3 27.48-21.25 26.4-19.2 24.43-17.8 22.45-16.4 19.75-15.75L19.75-15.75Q20.55-15.3 21.35-14.25L21.35-14.25 31.8 0 27.5 0Q26.15 0 25.55-1.05L25.55-1.05 16.25-13.85Q15.8-14.45 15.3-14.7 14.8-14.95 13.8-14.95L13.8-14.95 10.15-14.95 10.15 0ZM10.15-32L10.15-18.5 15.2-18.5Q19.25-18.5 21.55-20.35 23.85-22.2 23.85-25.55L23.85-25.55Q23.85-28.75 21.73-30.38 19.6-32 15.45-32L15.45-32 10.15-32ZM28.15-3.9L27.6 0 25.2-4.55 28.15-3.9ZM6.75 0L1.65 0 1.65-2.05Q1.65-2.5 1.85-2.78 2.05-3.05 2.45-3.1L2.45-3.1 6.2-3.9 6.75 0ZM1.65-35.85L6.75-35.85 6.2-31.95 2.45-32.75Q2.05-32.85 1.85-33.1 1.65-33.35 1.65-33.8L1.65-33.8 1.65-35.85ZM13.75 0L8.65 0 9.2-3.9 12.95-3.1Q13.35-3.05 13.55-2.78 13.75-2.5 13.75-2.05L13.75-2.05 13.75 0ZM32.7 0L27.6 0 28.15-3.9 31.9-3.1Q32.3-3.05 32.5-2.78 32.7-2.5 32.7-2.05L32.7-2.05 32.7 0ZM46.15 0.35L46.15 0.35Q42.5 0.35 39.77-1.3 37.05-2.95 35.55-6 34.05-9.05 34.05-13.2L34.05-13.2Q34.05-16.75 35.5-19.6 36.95-22.45 39.62-24.1 42.3-25.75 45.9-25.75L45.9-25.75Q49.05-25.75 51.4-24.35 53.75-22.95 55.07-20.43 56.4-17.9 56.4-14.4L56.4-14.4Q56.4-13.35 56.17-13 55.95-12.65 55.3-12.65L55.3-12.65 38.45-12.65Q38.45-12.5 38.45-12.33 38.45-12.15 38.45-12L38.45-12Q38.7-7.8 40.8-5.48 42.9-3.15 46.5-3.15L46.5-3.15Q48.05-3.15 49.57-3.78 51.1-4.4 52.27-5 53.45-5.6 53.95-5.6L53.95-5.6Q54.5-5.6 54.8-5.2L54.8-5.2 56.05-3.55Q55.05-2.25 53.37-1.38 51.7-0.5 49.8-0.08 47.9 0.35 46.15 0.35ZM38.6-15.45L38.6-15.45 52.4-15.45Q52.4-18.55 50.7-20.5 49-22.45 46-22.45L46-22.45Q42.75-22.45 40.9-20.6 39.05-18.75 38.6-15.45ZM74.4 0L70.4 0 60.05-25.35 63.7-25.35Q64.25-25.35 64.6-25.08 64.95-24.8 65.1-24.4L65.1-24.4 71.5-8.1Q71.75-7.45 71.97-6.6 72.2-5.75 72.45-4.55L72.45-4.55Q72.65-5.4 72.87-6.3 73.1-7.2 73.45-8.1L73.45-8.1 79.95-24.4Q80.1-24.8 80.42-25.08 80.75-25.35 81.25-25.35L81.25-25.35 84.75-25.35 74.4 0ZM66.9-24.1L63.15-24.1 63.15-25.35 66.9-25.35 66.9-24.1ZM82.45-24.1L78.7-24.1 78.7-25.35 82.45-25.35 82.45-24.1ZM58.35-25.35L63.45-25.35 62.9-21.45 59.15-22.25Q58.75-22.35 58.55-22.6 58.35-22.85 58.35-23.3L58.35-23.3 58.35-25.35ZM64.6-25.35L69.7-25.35 69.7-23.3Q69.7-22.85 69.5-22.6 69.3-22.35 68.9-22.25L68.9-22.25 65.15-21.45 64.6-25.35ZM75.1-25.35L80.2-25.35 79.65-21.45 75.9-22.25Q75.5-22.35 75.3-22.6 75.1-22.85 75.1-23.3L75.1-23.3 75.1-25.35ZM81.35-25.35L86.45-25.35 86.45-23.3Q86.45-22.85 86.25-22.6 86.05-22.35 85.65-22.25L85.65-22.25 81.9-21.45 81.35-25.35ZM96.24 0.4L96.24 0.4Q94.24 0.4 92.64-0.38 91.04-1.15 90.09-2.65 89.14-4.15 89.14-6.35L89.14-6.35Q89.14-7.85 89.97-9.22 90.79-10.6 92.64-11.7L92.64-11.7Q94.49-12.75 97.47-13.45 100.44-14.15 104.74-14.25L104.74-14.25 104.74-16.2Q104.74-19.15 103.47-20.68 102.19-22.2 99.74-22.2L99.74-22.2Q98.44-22.2 97.02-21.53 95.59-20.85 94.39-20.18 93.19-19.5 92.49-19.5L92.49-19.5Q92.04-19.5 91.72-19.75 91.39-20 91.19-20.35L91.19-20.35 90.39-21.75Q92.49-23.8 94.92-24.8 97.34-25.8 100.29-25.8L100.29-25.8Q103.14-25.8 105.09-24.6 107.04-23.4 108.07-21.25 109.09-19.1 109.09-16.2L109.09-16.2 109.09 0 107.14 0Q106.49 0 106.09-0.2 105.69-0.4 105.54-1.05L105.54-1.05 105.04-3.4Q103.04-1.6 101.04-0.6 99.04 0.4 96.24 0.4ZM97.54-2.75L97.54-2.75Q99.79-2.75 101.49-3.65 103.19-4.55 104.74-6.15L104.74-6.15 104.74-11.4Q102.14-11.35 100.04-11.03 97.94-10.7 96.47-10.13 94.99-9.55 94.22-8.68 93.44-7.8 93.44-6.55L93.44-6.55Q93.44-4.55 94.62-3.65 95.79-2.75 97.54-2.75ZM112.69 0L107.59 0 108.14-3.9 111.89-3.1Q112.29-3.05 112.49-2.78 112.69-2.5 112.69-2.05L112.69-2.05 112.69 0ZM122.79 0L118.34 0 118.34-25.35 120.99-25.35Q121.99-25.35 122.19-24.4L122.19-24.4 122.54-21.8Q123.94-23.55 125.67-24.65 127.39-25.75 129.69-25.75L129.69-25.75Q132.29-25.75 133.87-24.33 135.44-22.9 136.14-20.45L136.14-20.45Q137.19-23.15 139.42-24.45 141.64-25.75 144.24-25.75L144.24-25.75Q148.29-25.75 150.49-23.18 152.69-20.6 152.69-16.15L152.69-16.15 152.69 0 148.24 0 148.24-16.15Q148.24-19.1 146.94-20.65 145.64-22.2 143.14-22.2L143.14-22.2Q140.84-22.2 139.27-20.58 137.69-18.95 137.69-16.15L137.69-16.15 137.69 0 133.24 0 133.24-16.15Q133.24-19.2 132.02-20.7 130.79-22.2 128.44-22.2L128.44-22.2Q126.79-22.2 125.39-21.3 123.99-20.4 122.79-18.9L122.79-18.9 122.79 0ZM119.84 0L114.74 0 114.74-2.05Q114.74-2.5 114.94-2.78 115.14-3.05 115.54-3.1L115.54-3.1 119.29-3.9 119.84 0ZM126.39 0L121.29 0 121.84-3.9 125.59-3.1Q125.99-3.05 126.19-2.78 126.39-2.5 126.39-2.05L126.39-2.05 126.39 0ZM141.29 0L136.19 0 136.74-3.9 140.49-3.1Q140.89-3.05 141.09-2.78 141.29-2.5 141.29-2.05L141.29-2.05 141.29 0ZM114.74-25.35L119.84-25.35 119.29-21.45 115.54-22.25Q115.14-22.35 114.94-22.6 114.74-22.85 114.74-23.3L114.74-23.3 114.74-25.35ZM156.29 0L151.19 0 151.74-3.9 155.49-3.1Q155.89-3.05 156.09-2.78 156.29-2.5 156.29-2.05L156.29-2.05 156.29 0ZM166.39 8.6L161.94 8.6 161.94-25.35 164.59-25.35Q165.59-25.35 165.79-24.4L165.79-24.4 166.19-21.4Q167.79-23.4 169.89-24.6 171.99-25.8 174.69-25.8L174.69-25.8Q177.79-25.8 179.94-24.2 182.09-22.6 183.19-19.7 184.29-16.8 184.29-12.85L184.29-12.85Q184.29-9.2 182.99-6.2 181.69-3.2 179.24-1.43 176.79 0.35 173.34 0.35L173.34 0.35Q170.99 0.35 169.34-0.43 167.69-1.2 166.39-2.65L166.39-2.65 166.39 8.6ZM172.34-3.1L172.34-3.1Q174.74-3.1 176.36-4.23 177.99-5.35 178.84-7.55 179.69-9.75 179.69-12.85L179.69-12.85Q179.69-17.45 178.09-19.83 176.49-22.2 173.24-22.2L173.24-22.2Q171.04-22.2 169.41-21.2 167.79-20.2 166.39-18.35L166.39-18.35 166.39-6.1Q167.64-4.45 169.09-3.78 170.54-3.1 172.34-3.1ZM158.34-25.35L163.44-25.35 162.89-21.45 159.14-22.25Q158.74-22.35 158.54-22.6 158.34-22.85 158.34-23.3L158.34-23.3 158.34-25.35ZM163.44 8.6L158.34 8.6 158.34 6.55Q158.34 6.1 158.54 5.83 158.74 5.55 159.14 5.5L159.14 5.5 162.89 4.7 163.44 8.6ZM169.99 8.6L164.89 8.6 165.44 4.7 169.19 5.5Q169.59 5.55 169.79 5.83 169.99 6.1 169.99 6.55L169.99 6.55 169.99 8.6ZM210.63 8.6L207.33 8.6 211.93-1.5 201.48-25.35 205.33-25.35Q205.93-25.35 206.26-25.05 206.58-24.75 206.73-24.4L206.73-24.4 213.48-8.45Q213.63-8.1 213.83-7.45 214.03-6.8 214.18-6.25L214.18-6.25Q214.28-6.65 214.38-7 214.48-7.35 214.63-7.73 214.78-8.1 214.93-8.5L214.93-8.5 221.48-24.4Q221.63-24.8 222.01-25.08 222.38-25.35 222.78-25.35L222.78-25.35 226.33-25.35 212.23 7.5Q212.03 8 211.68 8.3 211.33 8.6 210.63 8.6L210.63 8.6ZM208.43-24.1L204.68-24.1 204.68-25.35 208.43-25.35 208.43-24.1ZM223.93-24.1L220.18-24.1 220.18-25.35 223.93-25.35 223.93-24.1ZM199.88-25.35L204.98-25.35 204.43-21.45 200.68-22.25Q200.28-22.35 200.08-22.6 199.88-22.85 199.88-23.3L199.88-23.3 199.88-25.35ZM206.13-25.35L211.23-25.35 211.23-23.3Q211.23-22.85 211.03-22.6 210.83-22.35 210.43-22.25L210.43-22.25 206.68-21.45 206.13-25.35ZM216.58-25.35L221.68-25.35 221.13-21.45 217.38-22.25Q216.98-22.35 216.78-22.6 216.58-22.85 216.58-23.3L216.58-23.3 216.58-25.35ZM222.83-25.35L227.93-25.35 227.93-23.3Q227.93-22.85 227.73-22.6 227.53-22.35 227.13-22.25L227.13-22.25 223.38-21.45 222.83-25.35ZM241.98-25.75L241.98-25.75Q245.78-25.75 248.46-24.13 251.13-22.5 252.58-19.55 254.03-16.6 254.03-12.7L254.03-12.7Q254.03-8.8 252.58-5.85 251.13-2.9 248.46-1.28 245.78 0.35 241.98 0.35L241.98 0.35Q238.28 0.35 235.56-1.28 232.83-2.9 231.36-5.85 229.88-8.8 229.88-12.7L229.88-12.7Q229.88-16.6 231.36-19.55 232.83-22.5 235.56-24.13 238.28-25.75 241.98-25.75ZM241.98-3.15L241.98-3.15Q245.73-3.15 247.58-5.65 249.43-8.15 249.43-12.65L249.43-12.65Q249.43-15.7 248.61-17.82 247.78-19.95 246.13-21.1 244.48-22.25 241.98-22.25L241.98-22.25Q239.43-22.25 237.76-21.08 236.08-19.9 235.28-17.75 234.48-15.6 234.48-12.65L234.48-12.65Q234.48-8.3 236.33-5.73 238.18-3.15 241.98-3.15ZM268.13 0.4L268.13 0.4Q265.38 0.4 263.48-0.83 261.58-2.05 260.6-4.2 259.63-6.35 259.63-9.2L259.63-9.2 259.63-25.35 264.08-25.35 264.08-9.2Q264.08-6.3 265.4-4.73 266.73-3.15 269.43-3.15L269.43-3.15Q271.38-3.15 273.1-4.08 274.83-5 276.28-6.65L276.28-6.65 276.28-25.35 280.73-25.35 280.73 0 278.08 0Q277.08 0 276.88-0.95L276.88-0.95 276.53-3.65Q274.88-1.85 272.83-0.73 270.78 0.4 268.13 0.4ZM284.33 0L279.23 0 279.78-3.9 283.53-3.1Q283.93-3.05 284.13-2.78 284.33-2.5 284.33-2.05L284.33-2.05 284.33 0ZM256.03-25.35L261.13-25.35 260.58-21.45 256.83-22.25Q256.43-22.35 256.23-22.6 256.03-22.85 256.03-23.3L256.03-23.3 256.03-25.35ZM272.68-25.35L277.78-25.35 277.23-21.45 273.48-22.25Q273.08-22.35 272.88-22.6 272.68-22.85 272.68-23.3L272.68-23.3 272.68-25.35ZM294.43 0L289.98 0 289.98-25.35 292.53-25.35Q293.28-25.35 293.58-25.08 293.88-24.8 293.93-24.1L293.93-24.1 294.23-20.15Q295.53-22.8 297.43-24.3 299.33-25.8 301.93-25.8L301.93-25.8Q302.98-25.8 303.83-25.55 304.68-25.3 305.38-24.9L305.38-24.9 304.83-21.55Q304.78-21.25 304.55-21.1 304.33-20.95 304.03-20.95L304.03-20.95Q303.68-20.95 302.68-21.18 301.68-21.4 300.93-21.4L300.93-21.4Q298.63-21.4 297.05-20.05 295.48-18.7 294.43-16.15L294.43-16.15 294.43 0ZM298.03 0L292.93 0 293.48-3.9 297.23-3.1Q297.63-3.05 297.83-2.78 298.03-2.5 298.03-2.05L298.03-2.05 298.03 0ZM291.48 0L286.38 0 286.38-2.05Q286.38-2.5 286.58-2.78 286.78-3.05 287.18-3.1L287.18-3.1 290.93-3.9 291.48 0ZM286.38-25.35L291.48-25.35 290.93-21.45 287.18-22.25Q286.78-22.35 286.58-22.6 286.38-22.85 286.38-23.3L286.38-23.3 286.38-25.35ZM329.02 0.4L329.02 0.4Q327.22 0.4 325 0 322.77-0.4 321.17-1L321.17-1 321.17-4.7 323.37-4.2Q324.02-3.75 325.45-3.28 326.87-2.8 328.77-2.8L328.77-2.8Q331.62-2.8 332.97-3.98 334.32-5.15 334.32-6.85L334.32-6.85Q334.32-8.35 333.42-9.15 332.52-9.95 331.02-10.45 329.52-10.95 327.77-11.5L327.77-11.5Q325.97-12.1 324.47-12.9 322.97-13.7 322.07-14.98 321.17-16.25 321.17-18.2L321.17-18.2Q321.17-20.45 322.35-22.15 323.52-23.85 325.55-24.8 327.57-25.75 330.12-25.75L330.12-25.75Q331.57-25.75 333.35-25.4 335.12-25.05 337.22-24.35L337.22-24.35 337.22-21.35 334.57-21.7Q333.52-22 332.45-22.2 331.37-22.4 330.37-22.4L330.37-22.4Q328.92-22.4 327.8-21.95 326.67-21.5 326.02-20.7 325.37-19.9 325.37-18.85L325.37-18.85Q325.37-17.45 326.45-16.63 327.52-15.8 329.07-15.3 330.62-14.8 332.02-14.35L332.02-14.35Q333.67-13.85 335.15-13.05 336.62-12.25 337.57-10.95 338.52-9.65 338.52-7.55L338.52-7.55Q338.52-5.3 337.35-3.5 336.17-1.7 334.05-0.65 331.92 0.4 329.02 0.4ZM334.52-18.65L334.02-22.4 337.22-21.75 337.22-17.85 335.57-17.85Q335.07-17.85 334.82-18.07 334.57-18.3 334.52-18.65L334.52-18.65ZM323.87-6.8L324.37-3.05 321.17-3.7 321.17-7.6 322.82-7.6Q323.37-7.6 323.6-7.38 323.82-7.15 323.87-6.8L323.87-6.8ZM351.27 0.4L351.27 0.4Q348.27 0.4 346.64-1.28 345.02-2.95 345.02-6.1L345.02-6.1 345.02-21.6 341.97-21.6Q341.57-21.6 341.29-21.85 341.02-22.1 341.02-22.6L341.02-22.6 341.02-24.35 345.17-24.9 346.22-32.7Q346.32-33.55 347.22-33.55L347.22-33.55 349.47-33.55 349.47-24.85 356.72-24.85 356.72-21.6 349.47-21.6 349.47-6.4Q349.47-4.8 350.24-4.03 351.02-3.25 352.27-3.25L352.27-3.25Q352.82-3.25 353.47-3.55 354.12-3.85 354.67-4.15 355.22-4.45 355.47-4.45L355.47-4.45Q355.82-4.45 356.07-4.05L356.07-4.05 357.37-1.9Q356.22-0.85 354.59-0.23 352.97 0.4 351.27 0.4ZM370.17 8.6L366.87 8.6 371.47-1.5 361.02-25.35 364.87-25.35Q365.47-25.35 365.79-25.05 366.12-24.75 366.27-24.4L366.27-24.4 373.02-8.45Q373.17-8.1 373.37-7.45 373.57-6.8 373.72-6.25L373.72-6.25Q373.82-6.65 373.92-7 374.02-7.35 374.17-7.73 374.32-8.1 374.47-8.5L374.47-8.5 381.02-24.4Q381.17-24.8 381.54-25.08 381.92-25.35 382.32-25.35L382.32-25.35 385.87-25.35 371.77 7.5Q371.57 8 371.22 8.3 370.87 8.6 370.17 8.6L370.17 8.6ZM367.97-24.1L364.22-24.1 364.22-25.35 367.97-25.35 367.97-24.1ZM383.47-24.1L379.72-24.1 379.72-25.35 383.47-25.35 383.47-24.1ZM359.42-25.35L364.52-25.35 363.97-21.45 360.22-22.25Q359.82-22.35 359.62-22.6 359.42-22.85 359.42-23.3L359.42-23.3 359.42-25.35ZM365.67-25.35L370.77-25.35 370.77-23.3Q370.77-22.85 370.57-22.6 370.37-22.35 369.97-22.25L369.97-22.25 366.22-21.45 365.67-25.35ZM376.12-25.35L381.22-25.35 380.67-21.45 376.92-22.25Q376.52-22.35 376.32-22.6 376.12-22.85 376.12-23.3L376.12-23.3 376.12-25.35ZM382.37-25.35L387.47-25.35 387.47-23.3Q387.47-22.85 387.27-22.6 387.07-22.35 386.67-22.25L386.67-22.25 382.92-21.45 382.37-25.35ZM397.81 0L393.36 0 393.36-36.85 397.81-36.85 397.81 0ZM394.86 0L389.76 0 389.76-2.05Q389.76-2.5 389.96-2.78 390.16-3.05 390.56-3.1L390.56-3.1 394.31-3.9 394.86 0ZM401.41 0L396.31 0 396.86-3.9 400.61-3.1Q401.01-3.05 401.21-2.78 401.41-2.5 401.41-2.05L401.41-2.05 401.41 0ZM389.76-36.85L394.86-36.85 394.31-32.95 390.56-33.75Q390.16-33.85 389.96-34.1 389.76-34.35 389.76-34.8L389.76-34.8 389.76-36.85ZM416.11 0.35L416.11 0.35Q412.46 0.35 409.74-1.3 407.01-2.95 405.51-6 404.01-9.05 404.01-13.2L404.01-13.2Q404.01-16.75 405.46-19.6 406.91-22.45 409.59-24.1 412.26-25.75 415.86-25.75L415.86-25.75Q419.01-25.75 421.36-24.35 423.71-22.95 425.04-20.43 426.36-17.9 426.36-14.4L426.36-14.4Q426.36-13.35 426.14-13 425.91-12.65 425.26-12.65L425.26-12.65 408.41-12.65Q408.41-12.5 408.41-12.33 408.41-12.15 408.41-12L408.41-12Q408.66-7.8 410.76-5.48 412.86-3.15 416.46-3.15L416.46-3.15Q418.01-3.15 419.54-3.78 421.06-4.4 422.24-5 423.41-5.6 423.91-5.6L423.91-5.6Q424.46-5.6 424.76-5.2L424.76-5.2 426.01-3.55Q425.01-2.25 423.34-1.38 421.66-0.5 419.76-0.08 417.86 0.35 416.11 0.35ZM408.56-15.45L408.56-15.45 422.36-15.45Q422.36-18.55 420.66-20.5 418.96-22.45 415.96-22.45L415.96-22.45Q412.71-22.45 410.86-20.6 409.01-18.75 408.56-15.45ZM433.41-21.55L433.41-35.85 437.61-35.85 437.61-21.55Q437.61-20.4 437.58-19.3 437.56-18.2 437.48-17.13 437.41-16.05 437.28-14.9 437.16-13.75 437.01-12.5L437.01-12.5 434.01-12.5Q433.86-13.75 433.76-14.9 433.66-16.05 433.58-17.13 433.51-18.2 433.46-19.3 433.41-20.4 433.41-21.55L433.41-21.55ZM432.31-2.75L432.31-2.75Q432.31-4.05 433.23-4.98 434.16-5.9 435.41-5.9L435.41-5.9Q436.71-5.9 437.63-4.98 438.56-4.05 438.56-2.75L438.56-2.75Q438.56-1.45 437.63-0.53 436.71 0.4 435.41 0.4L435.41 0.4Q434.16 0.4 433.23-0.53 432.31-1.45 432.31-2.75Z" opacity="1" transform="matrix(1,0,0,1,0,0)" fill="black" class="slogan-text-1" id="SvgjsPath1057"></path></svg></g></svg></g></svg></g></svg></g><g transform="matrix(1,0,0,1,411.7299919532907,0)"><svg viewBox="0 0 42.607526388955996 150.67660063176953" height="150.67660063176953" width="42.607526388955996"><g><svg xmlns="http://www.w3.org/2000/svg" xml:space="preserve" viewBox="37.27499540614281 5 25.450004593857194 90.0010045938572" x="0" y="0" height="150.67660063176953" width="42.607526388955996" class="icon-icon-0" data-fill-palette-color="accent" id="SvgjsSvg1056"><path d="M62.614 92.143a0.11 0.11 0 0 0-0.111 0.111v1.715H37.497v-1.715c0-0.061-0.049-0.111-0.111-0.111s-0.111 0.049-0.111 0.111v1.825a0.11 0.11 0 0 0 0.111 0.111h0.701v0.184h-0.092c-0.009 0-0.015 0.008-0.023 0.01s-0.018-0.002-0.026 0.002l-0.406 0.203a0.11 0.11 0 0 0-0.05 0.148c0.016 0.032 0.049 0.044 0.081 0.05-0.051 0.01-0.093 0.049-0.093 0.103a0.11 0.11 0 0 0 0.111 0.111h1.622a0.11 0.11 0 0 0 0.111-0.111c0-0.054-0.041-0.094-0.093-0.103 0.032-0.006 0.065-0.018 0.081-0.05a0.11 0.11 0 0 0-0.05-0.148l-0.405-0.203c-0.008-0.005-0.017 0-0.026-0.002s-0.014-0.01-0.024-0.01h-0.092v-0.184h22.555v0.184h-0.092c-0.009 0-0.015 0.008-0.023 0.01s-0.018-0.002-0.026 0.002l-0.406 0.203a0.11 0.11 0 0 0-0.05 0.148c0.016 0.032 0.049 0.044 0.081 0.05-0.051 0.01-0.093 0.049-0.093 0.103a0.11 0.11 0 0 0 0.111 0.111h1.622a0.11 0.11 0 0 0 0.111-0.111c0-0.054-0.041-0.094-0.093-0.103 0.032-0.006 0.065-0.018 0.081-0.05a0.11 0.11 0 0 0-0.05-0.148l-0.405-0.203c-0.008-0.005-0.017 0-0.026-0.002s-0.014-0.01-0.024-0.01h-0.092v-0.184h0.719a0.11 0.11 0 0 0 0.111-0.111v-1.825a0.11 0.11 0 0 0-0.11-0.111M38.78 94.595l0.368 0.184h-1.497l0.369-0.184z m-0.288-0.222h-0.184v-0.184h0.184z m23.47 0.222l0.368 0.184h-1.497l0.369-0.184z m-0.288-0.222h-0.184v-0.184h0.184z" fill="black"></path><path d="M37.276 92.253H49.44V5H37.276z m9.919-49.578h1.122v2.244h-1.122zM50.561 5v87.253h12.164V5z m2.244 39.919h-1.122v-2.244h1.122z" fill="black"></path></svg></g></svg></g></svg></g><defs><mask></mask></defs></svg><rect width="395.52" height="131.1703451199134" fill="black" stroke="none" visibility="hidden"></rect></g></mask><linearGradient x1="0.054" x2="0.941" y1="0.5" y2="0.5" id="658ce9ae-ea1b-47a6-aabf-69df26522c34"><stop stop-color="#0f3054" offset="0"></stop><stop stop-color="#3b8dcb" offset="0.498"></stop><stop stop-color="#0f3054" offset="1"></stop></linearGradient><rect width="395.52347311279954" height="131.17513082131705" fill="url(#658ce9ae-ea1b-47a6-aabf-69df26522c34)" mask="url(#696dc736-acf2-43db-9d79-ab259e11de65)" data-fill-palette-color="primary"></rect><mask id="01feddb0-036a-45cb-bfb5-eedf122bdbf5"><g id="SvgjsG1072"><svg viewBox="0 0 395.52 131.1703451199134" height="131.1703451199134" width="395.52"><g><svg viewBox="0 0 454.3375183422467 150.67660063176953" height="131.1703451199134" width="395.52"><g transform="matrix(1,0,0,1,0,20.8243348195861)"><svg viewBox="0 0 395.52 109.02793099259733" height="109.02793099259733" width="395.52"><g id="SvgjsG1071"><svg viewBox="0 0 395.52 109.02793099259733" height="109.02793099259733" width="395.52" id="SvgjsSvg1070"><g><svg viewBox="0 0 395.52 68.66429435135603" height="68.66429435135603" width="395.52"><g transform="matrix(1,0,0,1,0,0)"><svg width="395.52" viewBox="1.35 -35.8 289.40999999999997 50.25" height="68.66429435135603" data-palette-color="url(#658ce9ae-ea1b-47a6-aabf-69df26522c34)"></svg></g></svg></g><g transform="matrix(1,0,0,1,163.31020799999996,84.87428630464676)"><svg viewBox="0 0 232.20979200000002 24.15364468795057" height="24.15364468795057" width="232.20979200000002"><g transform="matrix(1,0,0,1,0,0)"><svg width="232.20979200000002" viewBox="1.65 -36.85 436.91 45.45" height="24.15364468795057" data-palette-color="url(#195384bd-9dd1-4dc7-bdc3-03ae54c24d1c)"><path d="M10.15 0L5.25 0 5.25-35.85 15.45-35.85Q19.7-35.85 22.6-34.73 25.5-33.6 27.03-31.4 28.55-29.2 28.55-25.9L28.55-25.9Q28.55-23.3 27.48-21.25 26.4-19.2 24.43-17.8 22.45-16.4 19.75-15.75L19.75-15.75Q20.55-15.3 21.35-14.25L21.35-14.25 31.8 0 27.5 0Q26.15 0 25.55-1.05L25.55-1.05 16.25-13.85Q15.8-14.45 15.3-14.7 14.8-14.95 13.8-14.95L13.8-14.95 10.15-14.95 10.15 0ZM10.15-32L10.15-18.5 15.2-18.5Q19.25-18.5 21.55-20.35 23.85-22.2 23.85-25.55L23.85-25.55Q23.85-28.75 21.73-30.38 19.6-32 15.45-32L15.45-32 10.15-32ZM28.15-3.9L27.6 0 25.2-4.55 28.15-3.9ZM6.75 0L1.65 0 1.65-2.05Q1.65-2.5 1.85-2.78 2.05-3.05 2.45-3.1L2.45-3.1 6.2-3.9 6.75 0ZM1.65-35.85L6.75-35.85 6.2-31.95 2.45-32.75Q2.05-32.85 1.85-33.1 1.65-33.35 1.65-33.8L1.65-33.8 1.65-35.85ZM13.75 0L8.65 0 9.2-3.9 12.95-3.1Q13.35-3.05 13.55-2.78 13.75-2.5 13.75-2.05L13.75-2.05 13.75 0ZM32.7 0L27.6 0 28.15-3.9 31.9-3.1Q32.3-3.05 32.5-2.78 32.7-2.5 32.7-2.05L32.7-2.05 32.7 0ZM46.15 0.35L46.15 0.35Q42.5 0.35 39.77-1.3 37.05-2.95 35.55-6 34.05-9.05 34.05-13.2L34.05-13.2Q34.05-16.75 35.5-19.6 36.95-22.45 39.62-24.1 42.3-25.75 45.9-25.75L45.9-25.75Q49.05-25.75 51.4-24.35 53.75-22.95 55.07-20.43 56.4-17.9 56.4-14.4L56.4-14.4Q56.4-13.35 56.17-13 55.95-12.65 55.3-12.65L55.3-12.65 38.45-12.65Q38.45-12.5 38.45-12.33 38.45-12.15 38.45-12L38.45-12Q38.7-7.8 40.8-5.48 42.9-3.15 46.5-3.15L46.5-3.15Q48.05-3.15 49.57-3.78 51.1-4.4 52.27-5 53.45-5.6 53.95-5.6L53.95-5.6Q54.5-5.6 54.8-5.2L54.8-5.2 56.05-3.55Q55.05-2.25 53.37-1.38 51.7-0.5 49.8-0.08 47.9 0.35 46.15 0.35ZM38.6-15.45L38.6-15.45 52.4-15.45Q52.4-18.55 50.7-20.5 49-22.45 46-22.45L46-22.45Q42.75-22.45 40.9-20.6 39.05-18.75 38.6-15.45ZM74.4 0L70.4 0 60.05-25.35 63.7-25.35Q64.25-25.35 64.6-25.08 64.95-24.8 65.1-24.4L65.1-24.4 71.5-8.1Q71.75-7.45 71.97-6.6 72.2-5.75 72.45-4.55L72.45-4.55Q72.65-5.4 72.87-6.3 73.1-7.2 73.45-8.1L73.45-8.1 79.95-24.4Q80.1-24.8 80.42-25.08 80.75-25.35 81.25-25.35L81.25-25.35 84.75-25.35 74.4 0ZM66.9-24.1L63.15-24.1 63.15-25.35 66.9-25.35 66.9-24.1ZM82.45-24.1L78.7-24.1 78.7-25.35 82.45-25.35 82.45-24.1ZM58.35-25.35L63.45-25.35 62.9-21.45 59.15-22.25Q58.75-22.35 58.55-22.6 58.35-22.85 58.35-23.3L58.35-23.3 58.35-25.35ZM64.6-25.35L69.7-25.35 69.7-23.3Q69.7-22.85 69.5-22.6 69.3-22.35 68.9-22.25L68.9-22.25 65.15-21.45 64.6-25.35ZM75.1-25.35L80.2-25.35 79.65-21.45 75.9-22.25Q75.5-22.35 75.3-22.6 75.1-22.85 75.1-23.3L75.1-23.3 75.1-25.35ZM81.35-25.35L86.45-25.35 86.45-23.3Q86.45-22.85 86.25-22.6 86.05-22.35 85.65-22.25L85.65-22.25 81.9-21.45 81.35-25.35ZM96.24 0.4L96.24 0.4Q94.24 0.4 92.64-0.38 91.04-1.15 90.09-2.65 89.14-4.15 89.14-6.35L89.14-6.35Q89.14-7.85 89.97-9.22 90.79-10.6 92.64-11.7L92.64-11.7Q94.49-12.75 97.47-13.45 100.44-14.15 104.74-14.25L104.74-14.25 104.74-16.2Q104.74-19.15 103.47-20.68 102.19-22.2 99.74-22.2L99.74-22.2Q98.44-22.2 97.02-21.53 95.59-20.85 94.39-20.18 93.19-19.5 92.49-19.5L92.49-19.5Q92.04-19.5 91.72-19.75 91.39-20 91.19-20.35L91.19-20.35 90.39-21.75Q92.49-23.8 94.92-24.8 97.34-25.8 100.29-25.8L100.29-25.8Q103.14-25.8 105.09-24.6 107.04-23.4 108.07-21.25 109.09-19.1 109.09-16.2L109.09-16.2 109.09 0 107.14 0Q106.49 0 106.09-0.2 105.69-0.4 105.54-1.05L105.54-1.05 105.04-3.4Q103.04-1.6 101.04-0.6 99.04 0.4 96.24 0.4ZM97.54-2.75L97.54-2.75Q99.79-2.75 101.49-3.65 103.19-4.55 104.74-6.15L104.74-6.15 104.74-11.4Q102.14-11.35 100.04-11.03 97.94-10.7 96.47-10.13 94.99-9.55 94.22-8.68 93.44-7.8 93.44-6.55L93.44-6.55Q93.44-4.55 94.62-3.65 95.79-2.75 97.54-2.75ZM112.69 0L107.59 0 108.14-3.9 111.89-3.1Q112.29-3.05 112.49-2.78 112.69-2.5 112.69-2.05L112.69-2.05 112.69 0ZM122.79 0L118.34 0 118.34-25.35 120.99-25.35Q121.99-25.35 122.19-24.4L122.19-24.4 122.54-21.8Q123.94-23.55 125.67-24.65 127.39-25.75 129.69-25.75L129.69-25.75Q132.29-25.75 133.87-24.33 135.44-22.9 136.14-20.45L136.14-20.45Q137.19-23.15 139.42-24.45 141.64-25.75 144.24-25.75L144.24-25.75Q148.29-25.75 150.49-23.18 152.69-20.6 152.69-16.15L152.69-16.15 152.69 0 148.24 0 148.24-16.15Q148.24-19.1 146.94-20.65 145.64-22.2 143.14-22.2L143.14-22.2Q140.84-22.2 139.27-20.58 137.69-18.95 137.69-16.15L137.69-16.15 137.69 0 133.24 0 133.24-16.15Q133.24-19.2 132.02-20.7 130.79-22.2 128.44-22.2L128.44-22.2Q126.79-22.2 125.39-21.3 123.99-20.4 122.79-18.9L122.79-18.9 122.79 0ZM119.84 0L114.74 0 114.74-2.05Q114.74-2.5 114.94-2.78 115.14-3.05 115.54-3.1L115.54-3.1 119.29-3.9 119.84 0ZM126.39 0L121.29 0 121.84-3.9 125.59-3.1Q125.99-3.05 126.19-2.78 126.39-2.5 126.39-2.05L126.39-2.05 126.39 0ZM141.29 0L136.19 0 136.74-3.9 140.49-3.1Q140.89-3.05 141.09-2.78 141.29-2.5 141.29-2.05L141.29-2.05 141.29 0ZM114.74-25.35L119.84-25.35 119.29-21.45 115.54-22.25Q115.14-22.35 114.94-22.6 114.74-22.85 114.74-23.3L114.74-23.3 114.74-25.35ZM156.29 0L151.19 0 151.74-3.9 155.49-3.1Q155.89-3.05 156.09-2.78 156.29-2.5 156.29-2.05L156.29-2.05 156.29 0ZM166.39 8.6L161.94 8.6 161.94-25.35 164.59-25.35Q165.59-25.35 165.79-24.4L165.79-24.4 166.19-21.4Q167.79-23.4 169.89-24.6 171.99-25.8 174.69-25.8L174.69-25.8Q177.79-25.8 179.94-24.2 182.09-22.6 183.19-19.7 184.29-16.8 184.29-12.85L184.29-12.85Q184.29-9.2 182.99-6.2 181.69-3.2 179.24-1.43 176.79 0.35 173.34 0.35L173.34 0.35Q170.99 0.35 169.34-0.43 167.69-1.2 166.39-2.65L166.39-2.65 166.39 8.6ZM172.34-3.1L172.34-3.1Q174.74-3.1 176.36-4.23 177.99-5.35 178.84-7.55 179.69-9.75 179.69-12.85L179.69-12.85Q179.69-17.45 178.09-19.83 176.49-22.2 173.24-22.2L173.24-22.2Q171.04-22.2 169.41-21.2 167.79-20.2 166.39-18.35L166.39-18.35 166.39-6.1Q167.64-4.45 169.09-3.78 170.54-3.1 172.34-3.1ZM158.34-25.35L163.44-25.35 162.89-21.45 159.14-22.25Q158.74-22.35 158.54-22.6 158.34-22.85 158.34-23.3L158.34-23.3 158.34-25.35ZM163.44 8.6L158.34 8.6 158.34 6.55Q158.34 6.1 158.54 5.83 158.74 5.55 159.14 5.5L159.14 5.5 162.89 4.7 163.44 8.6ZM169.99 8.6L164.89 8.6 165.44 4.7 169.19 5.5Q169.59 5.55 169.79 5.83 169.99 6.1 169.99 6.55L169.99 6.55 169.99 8.6ZM210.63 8.6L207.33 8.6 211.93-1.5 201.48-25.35 205.33-25.35Q205.93-25.35 206.26-25.05 206.58-24.75 206.73-24.4L206.73-24.4 213.48-8.45Q213.63-8.1 213.83-7.45 214.03-6.8 214.18-6.25L214.18-6.25Q214.28-6.65 214.38-7 214.48-7.35 214.63-7.73 214.78-8.1 214.93-8.5L214.93-8.5 221.48-24.4Q221.63-24.8 222.01-25.08 222.38-25.35 222.78-25.35L222.78-25.35 226.33-25.35 212.23 7.5Q212.03 8 211.68 8.3 211.33 8.6 210.63 8.6L210.63 8.6ZM208.43-24.1L204.68-24.1 204.68-25.35 208.43-25.35 208.43-24.1ZM223.93-24.1L220.18-24.1 220.18-25.35 223.93-25.35 223.93-24.1ZM199.88-25.35L204.98-25.35 204.43-21.45 200.68-22.25Q200.28-22.35 200.08-22.6 199.88-22.85 199.88-23.3L199.88-23.3 199.88-25.35ZM206.13-25.35L211.23-25.35 211.23-23.3Q211.23-22.85 211.03-22.6 210.83-22.35 210.43-22.25L210.43-22.25 206.68-21.45 206.13-25.35ZM216.58-25.35L221.68-25.35 221.13-21.45 217.38-22.25Q216.98-22.35 216.78-22.6 216.58-22.85 216.58-23.3L216.58-23.3 216.58-25.35ZM222.83-25.35L227.93-25.35 227.93-23.3Q227.93-22.85 227.73-22.6 227.53-22.35 227.13-22.25L227.13-22.25 223.38-21.45 222.83-25.35ZM241.98-25.75L241.98-25.75Q245.78-25.75 248.46-24.13 251.13-22.5 252.58-19.55 254.03-16.6 254.03-12.7L254.03-12.7Q254.03-8.8 252.58-5.85 251.13-2.9 248.46-1.28 245.78 0.35 241.98 0.35L241.98 0.35Q238.28 0.35 235.56-1.28 232.83-2.9 231.36-5.85 229.88-8.8 229.88-12.7L229.88-12.7Q229.88-16.6 231.36-19.55 232.83-22.5 235.56-24.13 238.28-25.75 241.98-25.75ZM241.98-3.15L241.98-3.15Q245.73-3.15 247.58-5.65 249.43-8.15 249.43-12.65L249.43-12.65Q249.43-15.7 248.61-17.82 247.78-19.95 246.13-21.1 244.48-22.25 241.98-22.25L241.98-22.25Q239.43-22.25 237.76-21.08 236.08-19.9 235.28-17.75 234.48-15.6 234.48-12.65L234.48-12.65Q234.48-8.3 236.33-5.73 238.18-3.15 241.98-3.15ZM268.13 0.4L268.13 0.4Q265.38 0.4 263.48-0.83 261.58-2.05 260.6-4.2 259.63-6.35 259.63-9.2L259.63-9.2 259.63-25.35 264.08-25.35 264.08-9.2Q264.08-6.3 265.4-4.73 266.73-3.15 269.43-3.15L269.43-3.15Q271.38-3.15 273.1-4.08 274.83-5 276.28-6.65L276.28-6.65 276.28-25.35 280.73-25.35 280.73 0 278.08 0Q277.08 0 276.88-0.95L276.88-0.95 276.53-3.65Q274.88-1.85 272.83-0.73 270.78 0.4 268.13 0.4ZM284.33 0L279.23 0 279.78-3.9 283.53-3.1Q283.93-3.05 284.13-2.78 284.33-2.5 284.33-2.05L284.33-2.05 284.33 0ZM256.03-25.35L261.13-25.35 260.58-21.45 256.83-22.25Q256.43-22.35 256.23-22.6 256.03-22.85 256.03-23.3L256.03-23.3 256.03-25.35ZM272.68-25.35L277.78-25.35 277.23-21.45 273.48-22.25Q273.08-22.35 272.88-22.6 272.68-22.85 272.68-23.3L272.68-23.3 272.68-25.35ZM294.43 0L289.98 0 289.98-25.35 292.53-25.35Q293.28-25.35 293.58-25.08 293.88-24.8 293.93-24.1L293.93-24.1 294.23-20.15Q295.53-22.8 297.43-24.3 299.33-25.8 301.93-25.8L301.93-25.8Q302.98-25.8 303.83-25.55 304.68-25.3 305.38-24.9L305.38-24.9 304.83-21.55Q304.78-21.25 304.55-21.1 304.33-20.95 304.03-20.95L304.03-20.95Q303.68-20.95 302.68-21.18 301.68-21.4 300.93-21.4L300.93-21.4Q298.63-21.4 297.05-20.05 295.48-18.7 294.43-16.15L294.43-16.15 294.43 0ZM298.03 0L292.93 0 293.48-3.9 297.23-3.1Q297.63-3.05 297.83-2.78 298.03-2.5 298.03-2.05L298.03-2.05 298.03 0ZM291.48 0L286.38 0 286.38-2.05Q286.38-2.5 286.58-2.78 286.78-3.05 287.18-3.1L287.18-3.1 290.93-3.9 291.48 0ZM286.38-25.35L291.48-25.35 290.93-21.45 287.18-22.25Q286.78-22.35 286.58-22.6 286.38-22.85 286.38-23.3L286.38-23.3 286.38-25.35ZM329.02 0.4L329.02 0.4Q327.22 0.4 325 0 322.77-0.4 321.17-1L321.17-1 321.17-4.7 323.37-4.2Q324.02-3.75 325.45-3.28 326.87-2.8 328.77-2.8L328.77-2.8Q331.62-2.8 332.97-3.98 334.32-5.15 334.32-6.85L334.32-6.85Q334.32-8.35 333.42-9.15 332.52-9.95 331.02-10.45 329.52-10.95 327.77-11.5L327.77-11.5Q325.97-12.1 324.47-12.9 322.97-13.7 322.07-14.98 321.17-16.25 321.17-18.2L321.17-18.2Q321.17-20.45 322.35-22.15 323.52-23.85 325.55-24.8 327.57-25.75 330.12-25.75L330.12-25.75Q331.57-25.75 333.35-25.4 335.12-25.05 337.22-24.35L337.22-24.35 337.22-21.35 334.57-21.7Q333.52-22 332.45-22.2 331.37-22.4 330.37-22.4L330.37-22.4Q328.92-22.4 327.8-21.95 326.67-21.5 326.02-20.7 325.37-19.9 325.37-18.85L325.37-18.85Q325.37-17.45 326.45-16.63 327.52-15.8 329.07-15.3 330.62-14.8 332.02-14.35L332.02-14.35Q333.67-13.85 335.15-13.05 336.62-12.25 337.57-10.95 338.52-9.65 338.52-7.55L338.52-7.55Q338.52-5.3 337.35-3.5 336.17-1.7 334.05-0.65 331.92 0.4 329.02 0.4ZM334.52-18.65L334.02-22.4 337.22-21.75 337.22-17.85 335.57-17.85Q335.07-17.85 334.82-18.07 334.57-18.3 334.52-18.65L334.52-18.65ZM323.87-6.8L324.37-3.05 321.17-3.7 321.17-7.6 322.82-7.6Q323.37-7.6 323.6-7.38 323.82-7.15 323.87-6.8L323.87-6.8ZM351.27 0.4L351.27 0.4Q348.27 0.4 346.64-1.28 345.02-2.95 345.02-6.1L345.02-6.1 345.02-21.6 341.97-21.6Q341.57-21.6 341.29-21.85 341.02-22.1 341.02-22.6L341.02-22.6 341.02-24.35 345.17-24.9 346.22-32.7Q346.32-33.55 347.22-33.55L347.22-33.55 349.47-33.55 349.47-24.85 356.72-24.85 356.72-21.6 349.47-21.6 349.47-6.4Q349.47-4.8 350.24-4.03 351.02-3.25 352.27-3.25L352.27-3.25Q352.82-3.25 353.47-3.55 354.12-3.85 354.67-4.15 355.22-4.45 355.47-4.45L355.47-4.45Q355.82-4.45 356.07-4.05L356.07-4.05 357.37-1.9Q356.22-0.85 354.59-0.23 352.97 0.4 351.27 0.4ZM370.17 8.6L366.87 8.6 371.47-1.5 361.02-25.35 364.87-25.35Q365.47-25.35 365.79-25.05 366.12-24.75 366.27-24.4L366.27-24.4 373.02-8.45Q373.17-8.1 373.37-7.45 373.57-6.8 373.72-6.25L373.72-6.25Q373.82-6.65 373.92-7 374.02-7.35 374.17-7.73 374.32-8.1 374.47-8.5L374.47-8.5 381.02-24.4Q381.17-24.8 381.54-25.08 381.92-25.35 382.32-25.35L382.32-25.35 385.87-25.35 371.77 7.5Q371.57 8 371.22 8.3 370.87 8.6 370.17 8.6L370.17 8.6ZM367.97-24.1L364.22-24.1 364.22-25.35 367.97-25.35 367.97-24.1ZM383.47-24.1L379.72-24.1 379.72-25.35 383.47-25.35 383.47-24.1ZM359.42-25.35L364.52-25.35 363.97-21.45 360.22-22.25Q359.82-22.35 359.62-22.6 359.42-22.85 359.42-23.3L359.42-23.3 359.42-25.35ZM365.67-25.35L370.77-25.35 370.77-23.3Q370.77-22.85 370.57-22.6 370.37-22.35 369.97-22.25L369.97-22.25 366.22-21.45 365.67-25.35ZM376.12-25.35L381.22-25.35 380.67-21.45 376.92-22.25Q376.52-22.35 376.32-22.6 376.12-22.85 376.12-23.3L376.12-23.3 376.12-25.35ZM382.37-25.35L387.47-25.35 387.47-23.3Q387.47-22.85 387.27-22.6 387.07-22.35 386.67-22.25L386.67-22.25 382.92-21.45 382.37-25.35ZM397.81 0L393.36 0 393.36-36.85 397.81-36.85 397.81 0ZM394.86 0L389.76 0 389.76-2.05Q389.76-2.5 389.96-2.78 390.16-3.05 390.56-3.1L390.56-3.1 394.31-3.9 394.86 0ZM401.41 0L396.31 0 396.86-3.9 400.61-3.1Q401.01-3.05 401.21-2.78 401.41-2.5 401.41-2.05L401.41-2.05 401.41 0ZM389.76-36.85L394.86-36.85 394.31-32.95 390.56-33.75Q390.16-33.85 389.96-34.1 389.76-34.35 389.76-34.8L389.76-34.8 389.76-36.85ZM416.11 0.35L416.11 0.35Q412.46 0.35 409.74-1.3 407.01-2.95 405.51-6 404.01-9.05 404.01-13.2L404.01-13.2Q404.01-16.75 405.46-19.6 406.91-22.45 409.59-24.1 412.26-25.75 415.86-25.75L415.86-25.75Q419.01-25.75 421.36-24.35 423.71-22.95 425.04-20.43 426.36-17.9 426.36-14.4L426.36-14.4Q426.36-13.35 426.14-13 425.91-12.65 425.26-12.65L425.26-12.65 408.41-12.65Q408.41-12.5 408.41-12.33 408.41-12.15 408.41-12L408.41-12Q408.66-7.8 410.76-5.48 412.86-3.15 416.46-3.15L416.46-3.15Q418.01-3.15 419.54-3.78 421.06-4.4 422.24-5 423.41-5.6 423.91-5.6L423.91-5.6Q424.46-5.6 424.76-5.2L424.76-5.2 426.01-3.55Q425.01-2.25 423.34-1.38 421.66-0.5 419.76-0.08 417.86 0.35 416.11 0.35ZM408.56-15.45L408.56-15.45 422.36-15.45Q422.36-18.55 420.66-20.5 418.96-22.45 415.96-22.45L415.96-22.45Q412.71-22.45 410.86-20.6 409.01-18.75 408.56-15.45ZM433.41-21.55L433.41-35.85 437.61-35.85 437.61-21.55Q437.61-20.4 437.58-19.3 437.56-18.2 437.48-17.13 437.41-16.05 437.28-14.9 437.16-13.75 437.01-12.5L437.01-12.5 434.01-12.5Q433.86-13.75 433.76-14.9 433.66-16.05 433.58-17.13 433.51-18.2 433.46-19.3 433.41-20.4 433.41-21.55L433.41-21.55ZM432.31-2.75L432.31-2.75Q432.31-4.05 433.23-4.98 434.16-5.9 435.41-5.9L435.41-5.9Q436.71-5.9 437.63-4.98 438.56-4.05 438.56-2.75L438.56-2.75Q438.56-1.45 437.63-0.53 436.71 0.4 435.41 0.4L435.41 0.4Q434.16 0.4 433.23-0.53 432.31-1.45 432.31-2.75Z" opacity="1" transform="matrix(1,0,0,1,0,0)" fill="white" class="slogan-text-1" id="SvgjsPath1069"></path></svg></g></svg></g></svg></g></svg></g><g transform="matrix(1,0,0,1,411.7299919532907,0)"><svg viewBox="0 0 42.607526388955996 150.67660063176953" height="150.67660063176953" width="42.607526388955996"><g><svg xmlns="http://www.w3.org/2000/svg" xml:space="preserve" viewBox="37.27499540614281 5 25.450004593857194 90.0010045938572" x="0" y="0" height="150.67660063176953" width="42.607526388955996" class="icon-icon-0" data-fill-palette-color="accent" id="SvgjsSvg1068"><path d="M62.614 92.143a0.11 0.11 0 0 0-0.111 0.111v1.715H37.497v-1.715c0-0.061-0.049-0.111-0.111-0.111s-0.111 0.049-0.111 0.111v1.825a0.11 0.11 0 0 0 0.111 0.111h0.701v0.184h-0.092c-0.009 0-0.015 0.008-0.023 0.01s-0.018-0.002-0.026 0.002l-0.406 0.203a0.11 0.11 0 0 0-0.05 0.148c0.016 0.032 0.049 0.044 0.081 0.05-0.051 0.01-0.093 0.049-0.093 0.103a0.11 0.11 0 0 0 0.111 0.111h1.622a0.11 0.11 0 0 0 0.111-0.111c0-0.054-0.041-0.094-0.093-0.103 0.032-0.006 0.065-0.018 0.081-0.05a0.11 0.11 0 0 0-0.05-0.148l-0.405-0.203c-0.008-0.005-0.017 0-0.026-0.002s-0.014-0.01-0.024-0.01h-0.092v-0.184h22.555v0.184h-0.092c-0.009 0-0.015 0.008-0.023 0.01s-0.018-0.002-0.026 0.002l-0.406 0.203a0.11 0.11 0 0 0-0.05 0.148c0.016 0.032 0.049 0.044 0.081 0.05-0.051 0.01-0.093 0.049-0.093 0.103a0.11 0.11 0 0 0 0.111 0.111h1.622a0.11 0.11 0 0 0 0.111-0.111c0-0.054-0.041-0.094-0.093-0.103 0.032-0.006 0.065-0.018 0.081-0.05a0.11 0.11 0 0 0-0.05-0.148l-0.405-0.203c-0.008-0.005-0.017 0-0.026-0.002s-0.014-0.01-0.024-0.01h-0.092v-0.184h0.719a0.11 0.11 0 0 0 0.111-0.111v-1.825a0.11 0.11 0 0 0-0.11-0.111M38.78 94.595l0.368 0.184h-1.497l0.369-0.184z m-0.288-0.222h-0.184v-0.184h0.184z m23.47 0.222l0.368 0.184h-1.497l0.369-0.184z m-0.288-0.222h-0.184v-0.184h0.184z" fill="black"></path><path d="M37.276 92.253H49.44V5H37.276z m9.919-49.578h1.122v2.244h-1.122zM50.561 5v87.253h12.164V5z m2.244 39.919h-1.122v-2.244h1.122z" fill="black"></path></svg></g></svg></g></svg></g><defs><mask></mask></defs><mask><g id="SvgjsG1067"><svg viewBox="0 0 395.52 131.1703451199134" height="131.1703451199134" width="395.52"><g><svg viewBox="0 0 454.3375183422467 150.67660063176953" height="131.1703451199134" width="395.52"><g transform="matrix(1,0,0,1,0,20.8243348195861)"><svg viewBox="0 0 395.52 109.02793099259733" height="109.02793099259733" width="395.52"><g id="SvgjsG1066"><svg viewBox="0 0 395.52 109.02793099259733" height="109.02793099259733" width="395.52" id="SvgjsSvg1065"><g><svg viewBox="0 0 395.52 68.66429435135603" height="68.66429435135603" width="395.52"><g transform="matrix(1,0,0,1,0,0)"><svg width="395.52" viewBox="1.35 -35.8 289.40999999999997 50.25" height="68.66429435135603" data-palette-color="url(#658ce9ae-ea1b-47a6-aabf-69df26522c34)"><path d="M23.1-11.45L23.1-11.45Q24.05-11.45 24.05-9.05 24.05-6.65 23.15-4.75 22.25-2.85 20.98-1.8 19.7-0.75 18.1-0.1L18.1-0.1Q12.75 2.25 8.1-0.2L8.1-0.2Q5.75-1.45 4.5-3.18 3.25-4.9 2.5-7.3L2.5-7.3Q1.35-10.9 1.35-14.85 1.35-18.8 2.1-22.25 2.85-25.7 4.4-28.83 5.95-31.95 8.8-33.85 11.65-35.75 15.4-35.75L15.4-35.75Q17-35.75 18.73-35.23 20.45-34.7 21.55-33.93 22.65-33.15 23.5-31.55 24.35-29.95 24.35-27.8L24.35-27.8Q24.35-25.5 23.25-23.65L23.25-23.65Q22.75-22.8 21.65-22.13 20.55-21.45 19.05-21.45L19.05-21.45Q16.75-21.45 15.8-23.5L15.8-23.5Q15.4-24.3 15.4-25.25 15.4-26.2 16.05-26.35L16.05-26.35Q16.75-26.55 17.35-27.45 17.95-28.35 17.95-29.55L17.95-29.55Q17.95-30.5 17.45-31.2L17.45-31.2Q16.5-32.45 14.7-32.45 12.9-32.45 11.43-30.8 9.95-29.15 9.2-26.65L9.2-26.65Q7.7-21.65 7.7-17.45L7.7-17.45Q7.7-13.25 8.85-10.7L8.85-10.7Q10.25-7.55 12.4-6.5L12.4-6.5Q13.75-5.85 15.5-5.85L15.5-5.85Q18.45-5.85 20.8-8.5L20.8-8.5Q21.8-9.55 22.45-11L22.45-11Q22.7-11.45 23.1-11.45ZM33.55-28.6L33.55-28.6 33.25-10.25Q33.25-1.65 33.8 0.05L33.8 0.05Q33.95 0.35 33.95 0.65L33.95 0.65Q33.95 1.25 32.5 1.25 31.05 1.25 29.27 0.53 27.5-0.2 27.5-1.35L27.5-1.35Q28.5-8.35 28.5-20.05L28.5-20.05 28.3-27.7Q28.2-29.1 27.72-30.1 27.25-31.1 26.8-31.4L26.8-31.4 26.4-31.65Q26.05-31.85 26.05-32.1L26.05-32.1Q26.05-32.8 28.22-33.83 30.4-34.85 32.45-34.85L32.45-34.85Q33.25-34.85 33.35-34.3L33.35-34.3Q33.55-33 33.55-28.6ZM41.84-18.85L41.84-18.85Q40.55-18.8 39.97-18.78 39.4-18.75 39.4-19.05 39.4-19.35 39.7-19.65L39.7-19.65Q42.9-22.6 50.5-22.6L50.5-22.6Q53.09-22.6 54.59-22.15L54.59-22.15 55.09-22Q55.7-21.75 55.7-21.45L55.7-21.45Q55.7-21.2 55.34-21.05L55.34-21.05Q54-20.65 52.75-19.78 51.5-18.9 51.5-18.55L51.5-18.55 51.8-18.2Q53.39-17.3 54.27-15.35 55.15-13.4 55.25-11.9L55.25-11.9 55.34-10.35Q55.34-5.4 52.59-2.2 49.84 1 45.09 1L45.09 1Q42.7 1 40.95 0.15 39.2-0.7 38.37-1.78 37.55-2.85 37.05-4.2L37.05-4.2Q36.45-6.05 36.45-8.03 36.45-10 37.12-12 37.8-14 38.67-14.95 39.55-15.9 40.65-16.5L40.65-16.5Q42.05-17.25 42.9-17.25 43.75-17.25 43.75-16.9L43.75-16.9 43.45-16.4Q42.34-15.1 41.87-13 41.4-10.9 41.4-9.28 41.4-7.65 41.8-6.05 42.2-4.45 42.7-3.68 43.2-2.9 43.84-2.5L43.84-2.5Q44.8-1.9 45.84-1.9 46.9-1.9 47.9-2.73 48.9-3.55 49.34-4.9L49.34-4.9Q50.25-7.4 50.25-10.05L50.25-10.05Q50.25-14.25 48.12-16.55 46-18.85 41.84-18.85ZM72.84-6.85L72.84-6.85Q72.84-4.7 72.02-3.1 71.19-1.5 70.14-0.75 69.09 0 67.64 0.45L67.64 0.45Q65.74 1.05 64.19 1.05L64.19 1.05Q60.94 1.05 58.79-0.23 56.64-1.5 56.64-4.3L56.64-4.3Q56.64-5.95 57.54-7L57.54-7Q58.94-8.55 60.89-8.55L60.89-8.55Q61.49-8.55 61.49-8L61.49-8Q61.49-7.95 61.27-7.23 61.04-6.5 61.04-5.4 61.04-4.3 61.92-3.45 62.79-2.6 64.04-2.6 65.29-2.6 66.04-3.03 66.79-3.45 67.09-4.1L67.09-4.1Q67.54-5 67.54-5.8L67.54-5.8Q67.54-7.25 66.09-8.3 64.64-9.35 62.89-9.95 61.14-10.55 59.69-11.95 58.24-13.35 58.24-15.45L58.24-15.45Q58.24-19.05 60.52-20.85 62.79-22.65 66.69-22.65L66.69-22.65Q68.39-22.65 70.27-22.18 72.14-21.7 72.14-20.58 72.14-19.45 71.77-18.5 71.39-17.55 70.84-17.55L70.84-17.55Q70.54-17.55 70.44-17.78 70.34-18 70.09-18.3 69.84-18.6 68.89-19.07 67.94-19.55 67.27-19.55 66.59-19.55 66.37-19.53 66.14-19.5 65.59-19.38 65.04-19.25 64.59-19L64.59-19Q63.44-18.35 63.44-17.1L63.44-17.1Q63.44-16.3 63.79-15.93 64.14-15.55 64.34-15.35 64.54-15.15 65.04-14.88 65.54-14.6 65.74-14.5 65.94-14.4 66.64-14.08 67.34-13.75 67.54-13.65L67.54-13.65Q72.84-11.15 72.84-6.85ZM79.59-12.7L79.59-12.7 79.64-11.45Q79.64-11.15 80.04-11.15L80.04-11.15Q81.64-11.3 82.84-11.98 84.04-12.65 84.64-13.5L84.64-13.5Q85.84-15.35 85.94-16.7L85.94-16.7 85.99-17.3Q85.99-20 83.84-20L83.84-20Q82.24-20 81.24-18.6L81.24-18.6Q79.59-16.4 79.59-12.7ZM90.49-6.05L90.49-6.05Q90.49-4.15 89.72-2.73 88.94-1.3 87.97-0.63 86.99 0.05 85.69 0.45L85.69 0.45Q84.04 0.95 82.54 0.95L82.54 0.95Q78.34 0.95 76.34-2.2 74.34-5.35 74.34-10.23 74.34-15.1 76.81-18.9 79.29-22.7 84.24-22.7L84.24-22.7Q88.74-22.7 90.34-19.55L90.34-19.55Q90.99-18.35 90.99-17.28 90.99-16.2 90.89-15.58 90.79-14.95 90.19-13.7 89.59-12.45 88.59-11.45 87.59-10.45 85.44-9.55 83.29-8.65 80.39-8.35L80.39-8.35Q79.99-8.35 79.99-8L79.99-8Q79.99-7.55 80.31-6.68 80.64-5.8 81.04-5.2L81.04-5.2Q82.14-3.8 84.29-3.8L84.29-3.8Q86.44-3.8 87.94-5.2L87.94-5.2Q88.74-5.95 89.24-7.05L89.24-7.05Q89.44-7.45 89.77-7.45 90.09-7.45 90.29-6.9 90.49-6.35 90.49-6.05ZM92.49-19.5L92.49-19.5 92.64-21.5Q92.69-21.95 93.34-21.95L93.34-21.95 95.09-21.95 94.89-25.95 94.89-26.15Q94.89-27.3 96.64-28.35 98.39-29.4 99.84-29.4L99.84-29.4Q100.29-29.4 100.29-29L100.29-29 100.29-28.95Q100.09-27.6 99.89-22L99.89-22Q102.09-22 102.69-22.1 103.29-22.2 103.34-22.2L103.34-22.2Q103.69-22.2 103.69-21.6 103.69-21 103.14-20.08 102.59-19.15 101.94-19.1L101.94-19.1 99.84-19.1Q99.79-17.4 99.79-13.38 99.79-9.35 99.86-6.75 99.94-4.15 100.04-2.83 100.14-1.5 100.26-0.7 100.39 0.1 100.46 0.45 100.54 0.8 100.54 0.9L100.54 0.9Q100.54 1.4 99.89 1.45L99.89 1.45Q97.94 1.45 96.01 0.9 94.09 0.35 94.09-1L94.09-1Q95.14-9.4 95.14-19.05L95.14-19.05Q93.79-19.05 93.09-18.95L93.09-18.95 93.04-18.95Q92.59-18.95 92.49-19.5ZM123.53-17.25L123.53-17.25 122.38-16.95Q121.48-16.95 121.48-18.63 121.48-20.3 122.71-21.33 123.93-22.35 125.83-22.35L125.83-22.35Q126.88-22.35 128.08-21.73 129.28-21.1 130.08-20.18 130.88-19.25 131.51-17.28 132.13-15.3 132.13-12.65L132.13-12.65Q132.13-6.55 128.86-2.75 125.58 1.05 119.38 1.05L119.38 1.05Q117.58 1.05 115.83 0.7L115.83 0.7 115.33 0.6Q114.68 0.4 114.58-0.1L114.58-0.1Q114.43-1.15 114.43-5.05L114.43-5.05 114.73-21.25Q114.73-25 114.53-27L114.53-27 114.43-27.7Q114.33-29.1 113.86-30.1 113.38-31.1 112.93-31.4L112.93-31.4 112.53-31.65Q112.18-31.85 112.18-32.1L112.18-32.1Q112.18-32.85 114.68-33.88 117.18-34.9 118.33-34.9 119.48-34.9 119.53-34.3L119.53-34.3Q119.88-31.25 119.88-25.6L119.88-25.6 119.63-13.6Q119.63-5.75 120.08-2.75L120.08-2.75Q120.13-2.05 121.66-2.05 123.18-2.05 124.28-2.9 125.38-3.75 125.93-5.15L125.93-5.15Q126.93-7.7 126.93-10.8L126.93-10.8Q126.93-12.25 126.53-13.95L126.53-13.95Q125.83-17.25 123.53-17.25ZM143.23 13.85L143.23 13.85Q143.23 14.45 142.63 14.45L142.63 14.45 142.58 14.45Q140.93 14.45 138.86 13.3 136.78 12.15 136.78 10.65 136.78 9.15 138.68 5.43 140.58 1.7 140.58 0.45L140.58 0.45Q140.58-0.9 139.28-4.4L139.28-4.4Q137.63-8.95 136.66-11.8 135.68-14.65 134.56-16.82 133.43-19 132.93-19.4L132.93-19.4 132.43-19.75Q131.88-20.05 131.88-20.4L131.88-20.4Q131.88-21.1 134.06-21.83 136.23-22.55 137.88-22.55L137.88-22.55Q138.63-22.55 139.13-21.35L139.13-21.35Q140.03-19 141.08-14.85L141.08-14.85Q143.63-6.35 144.28-6.35L144.28-6.35Q144.73-6.35 146.11-9.85 147.48-13.35 147.48-15.5L147.48-15.5Q147.48-19.25 145.28-19.9L145.28-19.9Q144.78-20 144.78-20.4L144.78-20.4Q144.78-21.3 147.13-22.13 149.48-22.95 151.38-22.95L151.38-22.95Q153.03-22.95 153.03-20.8L153.03-20.8Q153.03-19.15 152.33-16.95 151.63-14.75 151.03-13.48 150.43-12.2 148.06-7.58 145.68-2.95 144.13 0.55L144.13 0.55Q142.43 4.75 142.43 9.1L142.43 9.1Q142.43 11.4 142.83 12.55 143.23 13.7 143.23 13.85ZM171.23-22.15L171.23-22.15 171.23-21.45 180.08-21.45 180.08-21.55Q180.13-22.75 180.13-24.58 180.13-26.4 180.08-27.78 180.03-29.15 179.98-30.1 179.93-31.05 179.85-31.75 179.78-32.45 179.73-32.83 179.68-33.2 179.68-33.5 179.68-33.8 180.23-34.2L180.23-34.2Q182.63-35.8 185.58-35.8L185.58-35.8Q187.43-35.8 187.43-35.15L187.43-35.15Q187.43-35.1 187.33-34.6L187.33-34.6Q186.38-29.85 186.13-21.45L186.13-21.45Q185.98-13.05 185.98-12.45L185.98-12.45Q185.98-4.7 186.88-1.7L186.88-1.7Q187.03-1.3 187.03-1.03 187.03-0.75 186.63-0.4L186.63-0.4Q184.78 0.8 181.83 0.8L181.83 0.8Q179.93 0.8 179.68-0.5L179.68-0.5Q179.53-1.2 179.53-2.68 179.53-4.15 179.7-7.2 179.88-10.25 179.98-17.85L179.98-17.85 171.23-17.85Q171.23-6.45 171.93-1.85L171.93-1.85Q171.93-0.65 169.63 0.13 167.33 0.9 165.83 0.9 164.33 0.9 164.33 0.45L164.33 0.45Q164.33 0.15 164.48-0.3L164.48-0.3Q165.43-2.4 165.43-17.2L165.43-17.2 165.43-17.85 162.48-17.85Q162.08-17.85 162.08-18.15L162.08-18.15Q162.08-18.25 162.28-18.93 162.48-19.6 163.2-20.5 163.93-21.4 164.83-21.4L164.83-21.4 165.38-21.4Q165.38-31.25 164.23-32.75L164.23-32.75 164.03-33.05Q163.73-33.3 163.73-33.68 163.73-34.05 164.28-34.3L164.28-34.3Q165.03-34.75 166.95-35.2 168.88-35.65 170.43-35.65 171.98-35.65 171.98-34.95L171.98-34.95 171.98-34.8Q171.38-29.6 171.23-22.15ZM195.42-26.75L195.42-26.75 194.22-26.8Q192.87-26.8 192.47-26.15L192.47-26.15Q192.37-26 192.22-26L192.22-26Q191.57-26 191.57-28.23 191.57-30.45 192.25-31.05 192.92-31.65 194.6-31.65 196.27-31.65 196.87-31.08 197.47-30.5 197.47-29.15 197.47-27.8 197.02-27.28 196.57-26.75 195.42-26.75ZM191.42-1.5L191.42-1.5 191.97-13.15Q191.97-17.3 191.02-18.8L191.02-18.8Q190.72-19.3 190.32-19.55L190.32-19.55Q190.02-19.65 190.02-19.95L190.02-19.95Q190.02-20.85 192.57-21.7 195.12-22.55 196.3-22.55 197.47-22.55 197.52-21.95L197.52-21.95Q197.52-20.95 197.25-16.28 196.97-11.6 196.97-6.45 196.97-1.3 197.57-0.05L197.57-0.05Q197.72 0.2 197.72 0.45L197.72 0.45Q197.72 1.1 195.82 1.1 193.92 1.1 191.92 0.1L191.92 0.1Q191.42-0.15 191.42-1.5ZM210.77-22.45L210.77-22.45Q211.67-22.45 212.4-22.23 213.12-22 213.17-22L213.17-22 213.47-22.25 213.27-27.7Q213.17-29.1 212.67-30.1 212.17-31.1 211.77-31.4L211.77-31.4 211.32-31.65Q211.02-31.85 211.02-32.1L211.02-32.1Q211.02-32.85 213.35-33.85 215.67-34.85 216.97-34.85 218.27-34.85 218.37-34.3L218.37-34.3Q218.62-32.6 218.62-27.83 218.62-23.05 218.4-18.45 218.17-13.85 218.17-8.03 218.17-2.2 218.92-0.7L218.92-0.7Q219.12-0.35 219.12-0.05L219.12-0.05Q219.12 0.7 216.97 0.7L216.97 0.7Q212.87 0.7 212.87-1.25L212.87-1.25Q212.77-2.05 212.77-3.73 212.77-5.4 213.1-9.98 213.42-14.55 213.42-17.03 213.42-19.5 210.95-19.5 208.47-19.5 207.17-16.6 205.87-13.7 205.87-10.8L205.87-10.8Q205.87-4.65 208.97-4.65L208.97-4.65Q209.42-4.65 209.85-4.83 210.27-5 210.37-5L210.37-5Q210.77-5 211-4.5 211.22-4 211.22-3.5L211.22-3.5Q211.22-1.8 209.87-0.63 208.52 0.55 206.57 0.55L206.57 0.55Q203.57 0.55 202.05-2.08 200.52-4.7 200.52-8.6L200.52-8.6Q200.52-13.55 202.87-17.8L202.87-17.8Q204.07-19.9 206.12-21.18 208.17-22.45 210.77-22.45ZM238.07-15L238.07-15 237.97-8.6Q237.97-1.95 239.42-0.6L239.42-0.6Q239.62-0.4 239.62-0.15L239.62-0.15Q239.62 0.6 236.39 0.6 233.17 0.6 232.97-1.3L232.97-1.3Q232.92-1.75 232.92-3.15L232.92-3.15 233.12-11.15Q233.12-11.5 232.72-11.5L232.72-11.5Q230.32-11.5 228.22-10.15 226.12-8.8 226.12-6.7L226.12-6.7Q226.12-5.6 226.72-4.85 227.32-4.1 228.19-4.1 229.07-4.1 229.64-4.45 230.22-4.8 230.32-4.85L230.32-4.85Q231.17-4.75 231.17-3.08 231.17-1.4 229.62-0.38 228.07 0.65 226.37 0.65 224.67 0.65 223.44 0.05 222.22-0.55 221.67-1.3 221.12-2.05 220.77-3L220.77-3Q220.42-4.15 220.42-5L220.42-5Q220.42-8.5 222.62-10.6 224.82-12.7 228.27-13.6L228.27-13.6Q232.82-14.5 233.02-15.25L233.02-15.25Q233.17-15.8 233.17-17.1L233.17-17.1Q233.17-19.75 230.47-19.75L230.47-19.75Q229.32-19.75 228.42-19.03 227.52-18.3 227.52-17.2L227.52-17.2 227.82-16Q227.72-15.15 226.02-15L226.02-15 225.47-14.95Q223.97-14.95 223.09-15.7 222.22-16.45 222.22-17.7L222.22-17.7Q222.22-18.5 222.74-19.48 223.27-20.45 224.07-21.05 224.87-21.65 226.54-22.13 228.22-22.6 229.77-22.6 231.32-22.6 232.17-22.5 233.02-22.4 234.49-22.03 235.97-21.65 236.94-20.6 237.92-19.55 237.99-18.38 238.07-17.2 238.07-15ZM249.97 13.85L249.97 13.85Q249.97 14.45 249.37 14.45L249.37 14.45 249.32 14.45Q247.67 14.45 245.59 13.3 243.52 12.15 243.52 10.65 243.52 9.15 245.42 5.43 247.32 1.7 247.32 0.45L247.32 0.45Q247.32-0.9 246.02-4.4L246.02-4.4Q244.37-8.95 243.39-11.8 242.42-14.65 241.29-16.82 240.17-19 239.67-19.4L239.67-19.4 239.17-19.75Q238.62-20.05 238.62-20.4L238.62-20.4Q238.62-21.1 240.79-21.83 242.97-22.55 244.62-22.55L244.62-22.55Q245.37-22.55 245.87-21.35L245.87-21.35Q246.77-19 247.82-14.85L247.82-14.85Q250.37-6.35 251.02-6.35L251.02-6.35Q251.47-6.35 252.84-9.85 254.22-13.35 254.22-15.5L254.22-15.5Q254.22-19.25 252.02-19.9L252.02-19.9Q251.52-20 251.52-20.4L251.52-20.4Q251.52-21.3 253.87-22.13 256.22-22.95 258.12-22.95L258.12-22.95Q259.77-22.95 259.77-20.8L259.77-20.8Q259.77-19.15 259.07-16.95 258.37-14.75 257.77-13.48 257.17-12.2 254.79-7.58 252.42-2.95 250.87 0.55L250.87 0.55Q249.17 4.75 249.17 9.1L249.17 9.1Q249.17 11.4 249.57 12.55 249.97 13.7 249.97 13.85ZM277.26-15L277.26-15 277.16-8.6Q277.16-1.95 278.61-0.6L278.61-0.6Q278.81-0.4 278.81-0.15L278.81-0.15Q278.81 0.6 275.59 0.6 272.36 0.6 272.16-1.3L272.16-1.3Q272.11-1.75 272.11-3.15L272.11-3.15 272.31-11.15Q272.31-11.5 271.91-11.5L271.91-11.5Q269.51-11.5 267.41-10.15 265.31-8.8 265.31-6.7L265.31-6.7Q265.31-5.6 265.91-4.85 266.51-4.1 267.39-4.1 268.26-4.1 268.84-4.45 269.41-4.8 269.51-4.85L269.51-4.85Q270.36-4.75 270.36-3.08 270.36-1.4 268.81-0.38 267.26 0.65 265.56 0.65 263.86 0.65 262.64 0.05 261.41-0.55 260.86-1.3 260.31-2.05 259.96-3L259.96-3Q259.61-4.15 259.61-5L259.61-5Q259.61-8.5 261.81-10.6 264.01-12.7 267.46-13.6L267.46-13.6Q272.01-14.5 272.21-15.25L272.21-15.25Q272.36-15.8 272.36-17.1L272.36-17.1Q272.36-19.75 269.66-19.75L269.66-19.75Q268.51-19.75 267.61-19.03 266.71-18.3 266.71-17.2L266.71-17.2 267.01-16Q266.91-15.15 265.21-15L265.21-15 264.66-14.95Q263.16-14.95 262.29-15.7 261.41-16.45 261.41-17.7L261.41-17.7Q261.41-18.5 261.94-19.48 262.46-20.45 263.26-21.05 264.06-21.65 265.74-22.13 267.41-22.6 268.96-22.6 270.51-22.6 271.36-22.5 272.21-22.4 273.69-22.03 275.16-21.65 276.14-20.6 277.11-19.55 277.19-18.38 277.26-17.2 277.26-15ZM279.56-19.5L279.56-19.5 279.71-21.5Q279.76-21.95 280.41-21.95L280.41-21.95 282.16-21.95 281.96-25.95 281.96-26.15Q281.96-27.3 283.71-28.35 285.46-29.4 286.91-29.4L286.91-29.4Q287.36-29.4 287.36-29L287.36-29 287.36-28.95Q287.16-27.6 286.96-22L286.96-22Q289.16-22 289.76-22.1 290.36-22.2 290.41-22.2L290.41-22.2Q290.76-22.2 290.76-21.6 290.76-21 290.21-20.08 289.66-19.15 289.01-19.1L289.01-19.1 286.91-19.1Q286.86-17.4 286.86-13.38 286.86-9.35 286.94-6.75 287.01-4.15 287.11-2.83 287.21-1.5 287.34-0.7 287.46 0.1 287.54 0.45 287.61 0.8 287.61 0.9L287.61 0.9Q287.61 1.4 286.96 1.45L286.96 1.45Q285.01 1.45 283.09 0.9 281.16 0.35 281.16-1L281.16-1Q282.21-9.4 282.21-19.05L282.21-19.05Q280.86-19.05 280.16-18.95L280.16-18.95 280.11-18.95Q279.66-18.95 279.56-19.5Z" opacity="1" transform="matrix(1,0,0,1,0,0)" fill="black" class="wordmark-text-0" id="SvgjsPath1064"></path></svg></g></svg></g><g transform="matrix(1,0,0,1,163.31020799999996,84.87428630464676)"><svg viewBox="0 0 232.20979200000002 24.15364468795057" height="24.15364468795057" width="232.20979200000002"><g transform="matrix(1,0,0,1,0,0)"><svg width="232.20979200000002" viewBox="1.65 -36.85 436.91 45.45" height="24.15364468795057" data-palette-color="url(#195384bd-9dd1-4dc7-bdc3-03ae54c24d1c)"><path d="M10.15 0L5.25 0 5.25-35.85 15.45-35.85Q19.7-35.85 22.6-34.73 25.5-33.6 27.03-31.4 28.55-29.2 28.55-25.9L28.55-25.9Q28.55-23.3 27.48-21.25 26.4-19.2 24.43-17.8 22.45-16.4 19.75-15.75L19.75-15.75Q20.55-15.3 21.35-14.25L21.35-14.25 31.8 0 27.5 0Q26.15 0 25.55-1.05L25.55-1.05 16.25-13.85Q15.8-14.45 15.3-14.7 14.8-14.95 13.8-14.95L13.8-14.95 10.15-14.95 10.15 0ZM10.15-32L10.15-18.5 15.2-18.5Q19.25-18.5 21.55-20.35 23.85-22.2 23.85-25.55L23.85-25.55Q23.85-28.75 21.73-30.38 19.6-32 15.45-32L15.45-32 10.15-32ZM28.15-3.9L27.6 0 25.2-4.55 28.15-3.9ZM6.75 0L1.65 0 1.65-2.05Q1.65-2.5 1.85-2.78 2.05-3.05 2.45-3.1L2.45-3.1 6.2-3.9 6.75 0ZM1.65-35.85L6.75-35.85 6.2-31.95 2.45-32.75Q2.05-32.85 1.85-33.1 1.65-33.35 1.65-33.8L1.65-33.8 1.65-35.85ZM13.75 0L8.65 0 9.2-3.9 12.95-3.1Q13.35-3.05 13.55-2.78 13.75-2.5 13.75-2.05L13.75-2.05 13.75 0ZM32.7 0L27.6 0 28.15-3.9 31.9-3.1Q32.3-3.05 32.5-2.78 32.7-2.5 32.7-2.05L32.7-2.05 32.7 0ZM46.15 0.35L46.15 0.35Q42.5 0.35 39.77-1.3 37.05-2.95 35.55-6 34.05-9.05 34.05-13.2L34.05-13.2Q34.05-16.75 35.5-19.6 36.95-22.45 39.62-24.1 42.3-25.75 45.9-25.75L45.9-25.75Q49.05-25.75 51.4-24.35 53.75-22.95 55.07-20.43 56.4-17.9 56.4-14.4L56.4-14.4Q56.4-13.35 56.17-13 55.95-12.65 55.3-12.65L55.3-12.65 38.45-12.65Q38.45-12.5 38.45-12.33 38.45-12.15 38.45-12L38.45-12Q38.7-7.8 40.8-5.48 42.9-3.15 46.5-3.15L46.5-3.15Q48.05-3.15 49.57-3.78 51.1-4.4 52.27-5 53.45-5.6 53.95-5.6L53.95-5.6Q54.5-5.6 54.8-5.2L54.8-5.2 56.05-3.55Q55.05-2.25 53.37-1.38 51.7-0.5 49.8-0.08 47.9 0.35 46.15 0.35ZM38.6-15.45L38.6-15.45 52.4-15.45Q52.4-18.55 50.7-20.5 49-22.45 46-22.45L46-22.45Q42.75-22.45 40.9-20.6 39.05-18.75 38.6-15.45ZM74.4 0L70.4 0 60.05-25.35 63.7-25.35Q64.25-25.35 64.6-25.08 64.95-24.8 65.1-24.4L65.1-24.4 71.5-8.1Q71.75-7.45 71.97-6.6 72.2-5.75 72.45-4.55L72.45-4.55Q72.65-5.4 72.87-6.3 73.1-7.2 73.45-8.1L73.45-8.1 79.95-24.4Q80.1-24.8 80.42-25.08 80.75-25.35 81.25-25.35L81.25-25.35 84.75-25.35 74.4 0ZM66.9-24.1L63.15-24.1 63.15-25.35 66.9-25.35 66.9-24.1ZM82.45-24.1L78.7-24.1 78.7-25.35 82.45-25.35 82.45-24.1ZM58.35-25.35L63.45-25.35 62.9-21.45 59.15-22.25Q58.75-22.35 58.55-22.6 58.35-22.85 58.35-23.3L58.35-23.3 58.35-25.35ZM64.6-25.35L69.7-25.35 69.7-23.3Q69.7-22.85 69.5-22.6 69.3-22.35 68.9-22.25L68.9-22.25 65.15-21.45 64.6-25.35ZM75.1-25.35L80.2-25.35 79.65-21.45 75.9-22.25Q75.5-22.35 75.3-22.6 75.1-22.85 75.1-23.3L75.1-23.3 75.1-25.35ZM81.35-25.35L86.45-25.35 86.45-23.3Q86.45-22.85 86.25-22.6 86.05-22.35 85.65-22.25L85.65-22.25 81.9-21.45 81.35-25.35ZM96.24 0.4L96.24 0.4Q94.24 0.4 92.64-0.38 91.04-1.15 90.09-2.65 89.14-4.15 89.14-6.35L89.14-6.35Q89.14-7.85 89.97-9.22 90.79-10.6 92.64-11.7L92.64-11.7Q94.49-12.75 97.47-13.45 100.44-14.15 104.74-14.25L104.74-14.25 104.74-16.2Q104.74-19.15 103.47-20.68 102.19-22.2 99.74-22.2L99.74-22.2Q98.44-22.2 97.02-21.53 95.59-20.85 94.39-20.18 93.19-19.5 92.49-19.5L92.49-19.5Q92.04-19.5 91.72-19.75 91.39-20 91.19-20.35L91.19-20.35 90.39-21.75Q92.49-23.8 94.92-24.8 97.34-25.8 100.29-25.8L100.29-25.8Q103.14-25.8 105.09-24.6 107.04-23.4 108.07-21.25 109.09-19.1 109.09-16.2L109.09-16.2 109.09 0 107.14 0Q106.49 0 106.09-0.2 105.69-0.4 105.54-1.05L105.54-1.05 105.04-3.4Q103.04-1.6 101.04-0.6 99.04 0.4 96.24 0.4ZM97.54-2.75L97.54-2.75Q99.79-2.75 101.49-3.65 103.19-4.55 104.74-6.15L104.74-6.15 104.74-11.4Q102.14-11.35 100.04-11.03 97.94-10.7 96.47-10.13 94.99-9.55 94.22-8.68 93.44-7.8 93.44-6.55L93.44-6.55Q93.44-4.55 94.62-3.65 95.79-2.75 97.54-2.75ZM112.69 0L107.59 0 108.14-3.9 111.89-3.1Q112.29-3.05 112.49-2.78 112.69-2.5 112.69-2.05L112.69-2.05 112.69 0ZM122.79 0L118.34 0 118.34-25.35 120.99-25.35Q121.99-25.35 122.19-24.4L122.19-24.4 122.54-21.8Q123.94-23.55 125.67-24.65 127.39-25.75 129.69-25.75L129.69-25.75Q132.29-25.75 133.87-24.33 135.44-22.9 136.14-20.45L136.14-20.45Q137.19-23.15 139.42-24.45 141.64-25.75 144.24-25.75L144.24-25.75Q148.29-25.75 150.49-23.18 152.69-20.6 152.69-16.15L152.69-16.15 152.69 0 148.24 0 148.24-16.15Q148.24-19.1 146.94-20.65 145.64-22.2 143.14-22.2L143.14-22.2Q140.84-22.2 139.27-20.58 137.69-18.95 137.69-16.15L137.69-16.15 137.69 0 133.24 0 133.24-16.15Q133.24-19.2 132.02-20.7 130.79-22.2 128.44-22.2L128.44-22.2Q126.79-22.2 125.39-21.3 123.99-20.4 122.79-18.9L122.79-18.9 122.79 0ZM119.84 0L114.74 0 114.74-2.05Q114.74-2.5 114.94-2.78 115.14-3.05 115.54-3.1L115.54-3.1 119.29-3.9 119.84 0ZM126.39 0L121.29 0 121.84-3.9 125.59-3.1Q125.99-3.05 126.19-2.78 126.39-2.5 126.39-2.05L126.39-2.05 126.39 0ZM141.29 0L136.19 0 136.74-3.9 140.49-3.1Q140.89-3.05 141.09-2.78 141.29-2.5 141.29-2.05L141.29-2.05 141.29 0ZM114.74-25.35L119.84-25.35 119.29-21.45 115.54-22.25Q115.14-22.35 114.94-22.6 114.74-22.85 114.74-23.3L114.74-23.3 114.74-25.35ZM156.29 0L151.19 0 151.74-3.9 155.49-3.1Q155.89-3.05 156.09-2.78 156.29-2.5 156.29-2.05L156.29-2.05 156.29 0ZM166.39 8.6L161.94 8.6 161.94-25.35 164.59-25.35Q165.59-25.35 165.79-24.4L165.79-24.4 166.19-21.4Q167.79-23.4 169.89-24.6 171.99-25.8 174.69-25.8L174.69-25.8Q177.79-25.8 179.94-24.2 182.09-22.6 183.19-19.7 184.29-16.8 184.29-12.85L184.29-12.85Q184.29-9.2 182.99-6.2 181.69-3.2 179.24-1.43 176.79 0.35 173.34 0.35L173.34 0.35Q170.99 0.35 169.34-0.43 167.69-1.2 166.39-2.65L166.39-2.65 166.39 8.6ZM172.34-3.1L172.34-3.1Q174.74-3.1 176.36-4.23 177.99-5.35 178.84-7.55 179.69-9.75 179.69-12.85L179.69-12.85Q179.69-17.45 178.09-19.83 176.49-22.2 173.24-22.2L173.24-22.2Q171.04-22.2 169.41-21.2 167.79-20.2 166.39-18.35L166.39-18.35 166.39-6.1Q167.64-4.45 169.09-3.78 170.54-3.1 172.34-3.1ZM158.34-25.35L163.44-25.35 162.89-21.45 159.14-22.25Q158.74-22.35 158.54-22.6 158.34-22.85 158.34-23.3L158.34-23.3 158.34-25.35ZM163.44 8.6L158.34 8.6 158.34 6.55Q158.34 6.1 158.54 5.83 158.74 5.55 159.14 5.5L159.14 5.5 162.89 4.7 163.44 8.6ZM169.99 8.6L164.89 8.6 165.44 4.7 169.19 5.5Q169.59 5.55 169.79 5.83 169.99 6.1 169.99 6.55L169.99 6.55 169.99 8.6ZM210.63 8.6L207.33 8.6 211.93-1.5 201.48-25.35 205.33-25.35Q205.93-25.35 206.26-25.05 206.58-24.75 206.73-24.4L206.73-24.4 213.48-8.45Q213.63-8.1 213.83-7.45 214.03-6.8 214.18-6.25L214.18-6.25Q214.28-6.65 214.38-7 214.48-7.35 214.63-7.73 214.78-8.1 214.93-8.5L214.93-8.5 221.48-24.4Q221.63-24.8 222.01-25.08 222.38-25.35 222.78-25.35L222.78-25.35 226.33-25.35 212.23 7.5Q212.03 8 211.68 8.3 211.33 8.6 210.63 8.6L210.63 8.6ZM208.43-24.1L204.68-24.1 204.68-25.35 208.43-25.35 208.43-24.1ZM223.93-24.1L220.18-24.1 220.18-25.35 223.93-25.35 223.93-24.1ZM199.88-25.35L204.98-25.35 204.43-21.45 200.68-22.25Q200.28-22.35 200.08-22.6 199.88-22.85 199.88-23.3L199.88-23.3 199.88-25.35ZM206.13-25.35L211.23-25.35 211.23-23.3Q211.23-22.85 211.03-22.6 210.83-22.35 210.43-22.25L210.43-22.25 206.68-21.45 206.13-25.35ZM216.58-25.35L221.68-25.35 221.13-21.45 217.38-22.25Q216.98-22.35 216.78-22.6 216.58-22.85 216.58-23.3L216.58-23.3 216.58-25.35ZM222.83-25.35L227.93-25.35 227.93-23.3Q227.93-22.85 227.73-22.6 227.53-22.35 227.13-22.25L227.13-22.25 223.38-21.45 222.83-25.35ZM241.98-25.75L241.98-25.75Q245.78-25.75 248.46-24.13 251.13-22.5 252.58-19.55 254.03-16.6 254.03-12.7L254.03-12.7Q254.03-8.8 252.58-5.85 251.13-2.9 248.46-1.28 245.78 0.35 241.98 0.35L241.98 0.35Q238.28 0.35 235.56-1.28 232.83-2.9 231.36-5.85 229.88-8.8 229.88-12.7L229.88-12.7Q229.88-16.6 231.36-19.55 232.83-22.5 235.56-24.13 238.28-25.75 241.98-25.75ZM241.98-3.15L241.98-3.15Q245.73-3.15 247.58-5.65 249.43-8.15 249.43-12.65L249.43-12.65Q249.43-15.7 248.61-17.82 247.78-19.95 246.13-21.1 244.48-22.25 241.98-22.25L241.98-22.25Q239.43-22.25 237.76-21.08 236.08-19.9 235.28-17.75 234.48-15.6 234.48-12.65L234.48-12.65Q234.48-8.3 236.33-5.73 238.18-3.15 241.98-3.15ZM268.13 0.4L268.13 0.4Q265.38 0.4 263.48-0.83 261.58-2.05 260.6-4.2 259.63-6.35 259.63-9.2L259.63-9.2 259.63-25.35 264.08-25.35 264.08-9.2Q264.08-6.3 265.4-4.73 266.73-3.15 269.43-3.15L269.43-3.15Q271.38-3.15 273.1-4.08 274.83-5 276.28-6.65L276.28-6.65 276.28-25.35 280.73-25.35 280.73 0 278.08 0Q277.08 0 276.88-0.95L276.88-0.95 276.53-3.65Q274.88-1.85 272.83-0.73 270.78 0.4 268.13 0.4ZM284.33 0L279.23 0 279.78-3.9 283.53-3.1Q283.93-3.05 284.13-2.78 284.33-2.5 284.33-2.05L284.33-2.05 284.33 0ZM256.03-25.35L261.13-25.35 260.58-21.45 256.83-22.25Q256.43-22.35 256.23-22.6 256.03-22.85 256.03-23.3L256.03-23.3 256.03-25.35ZM272.68-25.35L277.78-25.35 277.23-21.45 273.48-22.25Q273.08-22.35 272.88-22.6 272.68-22.85 272.68-23.3L272.68-23.3 272.68-25.35ZM294.43 0L289.98 0 289.98-25.35 292.53-25.35Q293.28-25.35 293.58-25.08 293.88-24.8 293.93-24.1L293.93-24.1 294.23-20.15Q295.53-22.8 297.43-24.3 299.33-25.8 301.93-25.8L301.93-25.8Q302.98-25.8 303.83-25.55 304.68-25.3 305.38-24.9L305.38-24.9 304.83-21.55Q304.78-21.25 304.55-21.1 304.33-20.95 304.03-20.95L304.03-20.95Q303.68-20.95 302.68-21.18 301.68-21.4 300.93-21.4L300.93-21.4Q298.63-21.4 297.05-20.05 295.48-18.7 294.43-16.15L294.43-16.15 294.43 0ZM298.03 0L292.93 0 293.48-3.9 297.23-3.1Q297.63-3.05 297.83-2.78 298.03-2.5 298.03-2.05L298.03-2.05 298.03 0ZM291.48 0L286.38 0 286.38-2.05Q286.38-2.5 286.58-2.78 286.78-3.05 287.18-3.1L287.18-3.1 290.93-3.9 291.48 0ZM286.38-25.35L291.48-25.35 290.93-21.45 287.18-22.25Q286.78-22.35 286.58-22.6 286.38-22.85 286.38-23.3L286.38-23.3 286.38-25.35ZM329.02 0.4L329.02 0.4Q327.22 0.4 325 0 322.77-0.4 321.17-1L321.17-1 321.17-4.7 323.37-4.2Q324.02-3.75 325.45-3.28 326.87-2.8 328.77-2.8L328.77-2.8Q331.62-2.8 332.97-3.98 334.32-5.15 334.32-6.85L334.32-6.85Q334.32-8.35 333.42-9.15 332.52-9.95 331.02-10.45 329.52-10.95 327.77-11.5L327.77-11.5Q325.97-12.1 324.47-12.9 322.97-13.7 322.07-14.98 321.17-16.25 321.17-18.2L321.17-18.2Q321.17-20.45 322.35-22.15 323.52-23.85 325.55-24.8 327.57-25.75 330.12-25.75L330.12-25.75Q331.57-25.75 333.35-25.4 335.12-25.05 337.22-24.35L337.22-24.35 337.22-21.35 334.57-21.7Q333.52-22 332.45-22.2 331.37-22.4 330.37-22.4L330.37-22.4Q328.92-22.4 327.8-21.95 326.67-21.5 326.02-20.7 325.37-19.9 325.37-18.85L325.37-18.85Q325.37-17.45 326.45-16.63 327.52-15.8 329.07-15.3 330.62-14.8 332.02-14.35L332.02-14.35Q333.67-13.85 335.15-13.05 336.62-12.25 337.57-10.95 338.52-9.65 338.52-7.55L338.52-7.55Q338.52-5.3 337.35-3.5 336.17-1.7 334.05-0.65 331.92 0.4 329.02 0.4ZM334.52-18.65L334.02-22.4 337.22-21.75 337.22-17.85 335.57-17.85Q335.07-17.85 334.82-18.07 334.57-18.3 334.52-18.65L334.52-18.65ZM323.87-6.8L324.37-3.05 321.17-3.7 321.17-7.6 322.82-7.6Q323.37-7.6 323.6-7.38 323.82-7.15 323.87-6.8L323.87-6.8ZM351.27 0.4L351.27 0.4Q348.27 0.4 346.64-1.28 345.02-2.95 345.02-6.1L345.02-6.1 345.02-21.6 341.97-21.6Q341.57-21.6 341.29-21.85 341.02-22.1 341.02-22.6L341.02-22.6 341.02-24.35 345.17-24.9 346.22-32.7Q346.32-33.55 347.22-33.55L347.22-33.55 349.47-33.55 349.47-24.85 356.72-24.85 356.72-21.6 349.47-21.6 349.47-6.4Q349.47-4.8 350.24-4.03 351.02-3.25 352.27-3.25L352.27-3.25Q352.82-3.25 353.47-3.55 354.12-3.85 354.67-4.15 355.22-4.45 355.47-4.45L355.47-4.45Q355.82-4.45 356.07-4.05L356.07-4.05 357.37-1.9Q356.22-0.85 354.59-0.23 352.97 0.4 351.27 0.4ZM370.17 8.6L366.87 8.6 371.47-1.5 361.02-25.35 364.87-25.35Q365.47-25.35 365.79-25.05 366.12-24.75 366.27-24.4L366.27-24.4 373.02-8.45Q373.17-8.1 373.37-7.45 373.57-6.8 373.72-6.25L373.72-6.25Q373.82-6.65 373.92-7 374.02-7.35 374.17-7.73 374.32-8.1 374.47-8.5L374.47-8.5 381.02-24.4Q381.17-24.8 381.54-25.08 381.92-25.35 382.32-25.35L382.32-25.35 385.87-25.35 371.77 7.5Q371.57 8 371.22 8.3 370.87 8.6 370.17 8.6L370.17 8.6ZM367.97-24.1L364.22-24.1 364.22-25.35 367.97-25.35 367.97-24.1ZM383.47-24.1L379.72-24.1 379.72-25.35 383.47-25.35 383.47-24.1ZM359.42-25.35L364.52-25.35 363.97-21.45 360.22-22.25Q359.82-22.35 359.62-22.6 359.42-22.85 359.42-23.3L359.42-23.3 359.42-25.35ZM365.67-25.35L370.77-25.35 370.77-23.3Q370.77-22.85 370.57-22.6 370.37-22.35 369.97-22.25L369.97-22.25 366.22-21.45 365.67-25.35ZM376.12-25.35L381.22-25.35 380.67-21.45 376.92-22.25Q376.52-22.35 376.32-22.6 376.12-22.85 376.12-23.3L376.12-23.3 376.12-25.35ZM382.37-25.35L387.47-25.35 387.47-23.3Q387.47-22.85 387.27-22.6 387.07-22.35 386.67-22.25L386.67-22.25 382.92-21.45 382.37-25.35ZM397.81 0L393.36 0 393.36-36.85 397.81-36.85 397.81 0ZM394.86 0L389.76 0 389.76-2.05Q389.76-2.5 389.96-2.78 390.16-3.05 390.56-3.1L390.56-3.1 394.31-3.9 394.86 0ZM401.41 0L396.31 0 396.86-3.9 400.61-3.1Q401.01-3.05 401.21-2.78 401.41-2.5 401.41-2.05L401.41-2.05 401.41 0ZM389.76-36.85L394.86-36.85 394.31-32.95 390.56-33.75Q390.16-33.85 389.96-34.1 389.76-34.35 389.76-34.8L389.76-34.8 389.76-36.85ZM416.11 0.35L416.11 0.35Q412.46 0.35 409.74-1.3 407.01-2.95 405.51-6 404.01-9.05 404.01-13.2L404.01-13.2Q404.01-16.75 405.46-19.6 406.91-22.45 409.59-24.1 412.26-25.75 415.86-25.75L415.86-25.75Q419.01-25.75 421.36-24.35 423.71-22.95 425.04-20.43 426.36-17.9 426.36-14.4L426.36-14.4Q426.36-13.35 426.14-13 425.91-12.65 425.26-12.65L425.26-12.65 408.41-12.65Q408.41-12.5 408.41-12.33 408.41-12.15 408.41-12L408.41-12Q408.66-7.8 410.76-5.48 412.86-3.15 416.46-3.15L416.46-3.15Q418.01-3.15 419.54-3.78 421.06-4.4 422.24-5 423.41-5.6 423.91-5.6L423.91-5.6Q424.46-5.6 424.76-5.2L424.76-5.2 426.01-3.55Q425.01-2.25 423.34-1.38 421.66-0.5 419.76-0.08 417.86 0.35 416.11 0.35ZM408.56-15.45L408.56-15.45 422.36-15.45Q422.36-18.55 420.66-20.5 418.96-22.45 415.96-22.45L415.96-22.45Q412.71-22.45 410.86-20.6 409.01-18.75 408.56-15.45ZM433.41-21.55L433.41-35.85 437.61-35.85 437.61-21.55Q437.61-20.4 437.58-19.3 437.56-18.2 437.48-17.13 437.41-16.05 437.28-14.9 437.16-13.75 437.01-12.5L437.01-12.5 434.01-12.5Q433.86-13.75 433.76-14.9 433.66-16.05 433.58-17.13 433.51-18.2 433.46-19.3 433.41-20.4 433.41-21.55L433.41-21.55ZM432.31-2.75L432.31-2.75Q432.31-4.05 433.23-4.98 434.16-5.9 435.41-5.9L435.41-5.9Q436.71-5.9 437.63-4.98 438.56-4.05 438.56-2.75L438.56-2.75Q438.56-1.45 437.63-0.53 436.71 0.4 435.41 0.4L435.41 0.4Q434.16 0.4 433.23-0.53 432.31-1.45 432.31-2.75Z" opacity="1" transform="matrix(1,0,0,1,0,0)" fill="black" class="slogan-text-1" id="SvgjsPath1063"></path></svg></g></svg></g></svg></g></svg></g><g transform="matrix(1,0,0,1,411.7299919532907,0)"><svg viewBox="0 0 42.607526388955996 150.67660063176953" height="150.67660063176953" width="42.607526388955996"><g><svg xmlns="http://www.w3.org/2000/svg" xml:space="preserve" viewBox="37.27499540614281 5 25.450004593857194 90.0010045938572" x="0" y="0" height="150.67660063176953" width="42.607526388955996" class="icon-icon-0" data-fill-palette-color="accent" id="SvgjsSvg1062"><path d="M62.614 92.143a0.11 0.11 0 0 0-0.111 0.111v1.715H37.497v-1.715c0-0.061-0.049-0.111-0.111-0.111s-0.111 0.049-0.111 0.111v1.825a0.11 0.11 0 0 0 0.111 0.111h0.701v0.184h-0.092c-0.009 0-0.015 0.008-0.023 0.01s-0.018-0.002-0.026 0.002l-0.406 0.203a0.11 0.11 0 0 0-0.05 0.148c0.016 0.032 0.049 0.044 0.081 0.05-0.051 0.01-0.093 0.049-0.093 0.103a0.11 0.11 0 0 0 0.111 0.111h1.622a0.11 0.11 0 0 0 0.111-0.111c0-0.054-0.041-0.094-0.093-0.103 0.032-0.006 0.065-0.018 0.081-0.05a0.11 0.11 0 0 0-0.05-0.148l-0.405-0.203c-0.008-0.005-0.017 0-0.026-0.002s-0.014-0.01-0.024-0.01h-0.092v-0.184h22.555v0.184h-0.092c-0.009 0-0.015 0.008-0.023 0.01s-0.018-0.002-0.026 0.002l-0.406 0.203a0.11 0.11 0 0 0-0.05 0.148c0.016 0.032 0.049 0.044 0.081 0.05-0.051 0.01-0.093 0.049-0.093 0.103a0.11 0.11 0 0 0 0.111 0.111h1.622a0.11 0.11 0 0 0 0.111-0.111c0-0.054-0.041-0.094-0.093-0.103 0.032-0.006 0.065-0.018 0.081-0.05a0.11 0.11 0 0 0-0.05-0.148l-0.405-0.203c-0.008-0.005-0.017 0-0.026-0.002s-0.014-0.01-0.024-0.01h-0.092v-0.184h0.719a0.11 0.11 0 0 0 0.111-0.111v-1.825a0.11 0.11 0 0 0-0.11-0.111M38.78 94.595l0.368 0.184h-1.497l0.369-0.184z m-0.288-0.222h-0.184v-0.184h0.184z m23.47 0.222l0.368 0.184h-1.497l0.369-0.184z m-0.288-0.222h-0.184v-0.184h0.184z" fill="black"></path><path d="M37.276 92.253H49.44V5H37.276z m9.919-49.578h1.122v2.244h-1.122zM50.561 5v87.253h12.164V5z m2.244 39.919h-1.122v-2.244h1.122z" fill="black"></path></svg></g></svg></g></svg></g><defs><mask></mask></defs></svg><rect width="395.52" height="131.1703451199134" fill="black" stroke="none" visibility="hidden"></rect></g></mask></svg><rect width="395.52" height="131.1703451199134" fill="black" stroke="none" visibility="hidden"></rect></g></mask><linearGradient x1="0.054" x2="0.941" y1="0.5" y2="0.5" id="195384bd-9dd1-4dc7-bdc3-03ae54c24d1c"><stop stop-color="#0f3054" offset="0"></stop><stop stop-color="#3b8dcb" offset="0.498"></stop><stop stop-color="#0f3054" offset="1"></stop></linearGradient><rect width="395.52347311279954" height="131.17513082131705" fill="url(#195384bd-9dd1-4dc7-bdc3-03ae54c24d1c)" mask="url(#01feddb0-036a-45cb-bfb5-eedf122bdbf5)" data-fill-palette-color="secondary"></rect></svg><rect width="395.52" height="131.1703451199134" fill="none" stroke="none" visibility="hidden"></rect></g></svg></g></svg>